<mxfile host="app.diagrams.net" agent="Mozilla/5.0 (Windows NT 10.0; Win64; x64) AppleWebKit/537.36 (KHTML, like Gecko) Chrome/134.0.0.0 Safari/537.36" version="26.1.3">
  <diagram name="Strona-1" id="uhHSKCavAqlSANoSa0ii">
    <mxGraphModel dx="2100" dy="1044" grid="1" gridSize="10" guides="1" tooltips="1" connect="1" arrows="1" fold="1" page="1" pageScale="1" pageWidth="827" pageHeight="1169" math="0" shadow="0">
      <root>
        <mxCell id="0" />
        <mxCell id="1" parent="0" />
        <mxCell id="f1ncYs2R5OoKq9qTf_Yw-40" value="saves information about cold start" style="endArrow=classic;html=1;rounded=0;exitX=0.5;exitY=1;exitDx=0;exitDy=0;entryX=0.5;entryY=0;entryDx=0;entryDy=0;" edge="1" parent="1" source="f1ncYs2R5OoKq9qTf_Yw-27" target="f1ncYs2R5OoKq9qTf_Yw-39">
          <mxGeometry width="50" height="50" relative="1" as="geometry">
            <mxPoint x="1350" y="900" as="sourcePoint" />
            <mxPoint x="1400" y="850" as="targetPoint" />
          </mxGeometry>
        </mxCell>
        <mxCell id="f1ncYs2R5OoKq9qTf_Yw-38" value="reads logs" style="endArrow=classic;html=1;rounded=0;exitX=0.5;exitY=1;exitDx=0;exitDy=0;entryX=1;entryY=0.5;entryDx=0;entryDy=0;" edge="1" parent="1" source="f1ncYs2R5OoKq9qTf_Yw-27" target="f1ncYs2R5OoKq9qTf_Yw-32">
          <mxGeometry width="50" height="50" relative="1" as="geometry">
            <mxPoint x="710" y="1110" as="sourcePoint" />
            <mxPoint x="760" y="1060" as="targetPoint" />
          </mxGeometry>
        </mxCell>
        <mxCell id="f1ncYs2R5OoKq9qTf_Yw-35" value="" style="endArrow=classic;html=1;rounded=0;exitX=0.5;exitY=1;exitDx=0;exitDy=0;entryX=0.5;entryY=0;entryDx=0;entryDy=0;" edge="1" parent="1" source="f1ncYs2R5OoKq9qTf_Yw-15" target="f1ncYs2R5OoKq9qTf_Yw-32">
          <mxGeometry width="50" height="50" relative="1" as="geometry">
            <mxPoint x="260" y="870" as="sourcePoint" />
            <mxPoint x="414" y="1050" as="targetPoint" />
          </mxGeometry>
        </mxCell>
        <mxCell id="f1ncYs2R5OoKq9qTf_Yw-36" value="" style="endArrow=classic;html=1;rounded=0;exitX=0.5;exitY=1;exitDx=0;exitDy=0;entryX=0.75;entryY=0;entryDx=0;entryDy=0;" edge="1" parent="1" source="f1ncYs2R5OoKq9qTf_Yw-16" target="f1ncYs2R5OoKq9qTf_Yw-32">
          <mxGeometry width="50" height="50" relative="1" as="geometry">
            <mxPoint x="270" y="880" as="sourcePoint" />
            <mxPoint x="424" y="1060" as="targetPoint" />
          </mxGeometry>
        </mxCell>
        <mxCell id="f1ncYs2R5OoKq9qTf_Yw-34" value="" style="endArrow=classic;html=1;rounded=0;exitX=0.5;exitY=1;exitDx=0;exitDy=0;entryX=0.25;entryY=0;entryDx=0;entryDy=0;" edge="1" parent="1" source="f1ncYs2R5OoKq9qTf_Yw-14" target="f1ncYs2R5OoKq9qTf_Yw-32">
          <mxGeometry width="50" height="50" relative="1" as="geometry">
            <mxPoint x="160" y="1110" as="sourcePoint" />
            <mxPoint x="210" y="1060" as="targetPoint" />
          </mxGeometry>
        </mxCell>
        <mxCell id="f1ncYs2R5OoKq9qTf_Yw-33" value="sends logs about cold start value" style="endArrow=classic;html=1;rounded=0;entryX=0;entryY=0;entryDx=0;entryDy=0;exitX=0.5;exitY=1;exitDx=0;exitDy=0;" edge="1" parent="1" source="f1ncYs2R5OoKq9qTf_Yw-13" target="f1ncYs2R5OoKq9qTf_Yw-32">
          <mxGeometry width="50" height="50" relative="1" as="geometry">
            <mxPoint x="250" y="790" as="sourcePoint" />
            <mxPoint x="310" y="1040" as="targetPoint" />
          </mxGeometry>
        </mxCell>
        <mxCell id="f1ncYs2R5OoKq9qTf_Yw-1" value="AWS EventBrige" style="shape=image;verticalLabelPosition=bottom;labelBackgroundColor=default;verticalAlign=top;aspect=fixed;imageAspect=0;image=https://docs.streamnative.io/images/connectors/aws-eventbridge.png;" vertex="1" parent="1">
          <mxGeometry x="21" y="290" width="100" height="100" as="geometry" />
        </mxCell>
        <mxCell id="f1ncYs2R5OoKq9qTf_Yw-2" value="triggers" style="endArrow=classic;html=1;rounded=0;exitX=1;exitY=0.5;exitDx=0;exitDy=0;entryX=0;entryY=0.5;entryDx=0;entryDy=0;" edge="1" parent="1" source="f1ncYs2R5OoKq9qTf_Yw-1" target="f1ncYs2R5OoKq9qTf_Yw-3">
          <mxGeometry width="50" height="50" relative="1" as="geometry">
            <mxPoint x="510" y="330" as="sourcePoint" />
            <mxPoint x="220" y="340" as="targetPoint" />
          </mxGeometry>
        </mxCell>
        <mxCell id="f1ncYs2R5OoKq9qTf_Yw-3" value="SNSPublisherAWSLambda" style="shape=image;verticalLabelPosition=bottom;labelBackgroundColor=default;verticalAlign=top;aspect=fixed;imageAspect=0;image=https://cloud-icons.onemodel.app/aws/Architecture-Service-Icons_01312023/Arch_Compute/64/Arch_AWS-Lambda_64@5x.png;" vertex="1" parent="1">
          <mxGeometry x="360" y="290" width="100" height="100" as="geometry" />
        </mxCell>
        <mxCell id="f1ncYs2R5OoKq9qTf_Yw-8" value="publishes a message" style="endArrow=classic;html=1;rounded=0;exitX=0.5;exitY=1;exitDx=0;exitDy=0;entryX=0.5;entryY=0;entryDx=0;entryDy=0;" edge="1" parent="1" source="f1ncYs2R5OoKq9qTf_Yw-3" target="f1ncYs2R5OoKq9qTf_Yw-7">
          <mxGeometry width="50" height="50" relative="1" as="geometry">
            <mxPoint x="500" y="390" as="sourcePoint" />
            <mxPoint x="510" y="270" as="targetPoint" />
          </mxGeometry>
        </mxCell>
        <mxCell id="f1ncYs2R5OoKq9qTf_Yw-9" value="" style="sketch=0;outlineConnect=0;fontColor=#232F3E;gradientColor=none;fillColor=#7AA116;strokeColor=none;dashed=0;verticalLabelPosition=bottom;verticalAlign=top;align=center;html=1;fontSize=12;fontStyle=0;aspect=fixed;pointerEvents=1;shape=mxgraph.aws4.backup_recovery_time_objective;" vertex="1" parent="1">
          <mxGeometry x="32" y="120" width="78" height="75" as="geometry" />
        </mxCell>
        <mxCell id="f1ncYs2R5OoKq9qTf_Yw-10" value="invoked chronically&lt;div&gt;using a parameter&lt;/div&gt;" style="endArrow=none;dashed=1;html=1;dashPattern=1 3;strokeWidth=2;rounded=0;exitX=0.5;exitY=0;exitDx=0;exitDy=0;" edge="1" parent="1" source="f1ncYs2R5OoKq9qTf_Yw-1" target="f1ncYs2R5OoKq9qTf_Yw-9">
          <mxGeometry width="50" height="50" relative="1" as="geometry">
            <mxPoint x="420" y="500" as="sourcePoint" />
            <mxPoint x="470" y="450" as="targetPoint" />
          </mxGeometry>
        </mxCell>
        <mxCell id="f1ncYs2R5OoKq9qTf_Yw-13" value="TestingLambda1_Python" style="shape=image;verticalLabelPosition=bottom;labelBackgroundColor=default;verticalAlign=top;aspect=fixed;imageAspect=0;image=https://cloud-icons.onemodel.app/aws/Architecture-Service-Icons_01312023/Arch_Compute/64/Arch_AWS-Lambda_64@5x.png;" vertex="1" parent="1">
          <mxGeometry x="21" y="760" width="100" height="100" as="geometry" />
        </mxCell>
        <mxCell id="f1ncYs2R5OoKq9qTf_Yw-14" value="TestingLambda2_.NET" style="shape=image;verticalLabelPosition=bottom;labelBackgroundColor=default;verticalAlign=top;aspect=fixed;imageAspect=0;image=https://cloud-icons.onemodel.app/aws/Architecture-Service-Icons_01312023/Arch_Compute/64/Arch_AWS-Lambda_64@5x.png;" vertex="1" parent="1">
          <mxGeometry x="200" y="760" width="100" height="100" as="geometry" />
        </mxCell>
        <mxCell id="f1ncYs2R5OoKq9qTf_Yw-15" value="TestingLambda3_NODE" style="shape=image;verticalLabelPosition=bottom;labelBackgroundColor=default;verticalAlign=top;aspect=fixed;imageAspect=0;image=https://cloud-icons.onemodel.app/aws/Architecture-Service-Icons_01312023/Arch_Compute/64/Arch_AWS-Lambda_64@5x.png;" vertex="1" parent="1">
          <mxGeometry x="380" y="760" width="100" height="100" as="geometry" />
        </mxCell>
        <mxCell id="f1ncYs2R5OoKq9qTf_Yw-16" value="TestingLambda4_JAVA" style="shape=image;verticalLabelPosition=bottom;labelBackgroundColor=default;verticalAlign=top;aspect=fixed;imageAspect=0;image=https://cloud-icons.onemodel.app/aws/Architecture-Service-Icons_01312023/Arch_Compute/64/Arch_AWS-Lambda_64@5x.png;" vertex="1" parent="1">
          <mxGeometry x="560" y="760" width="100" height="100" as="geometry" />
        </mxCell>
        <mxCell id="f1ncYs2R5OoKq9qTf_Yw-17" value="TestingLamda5_TypeScript" style="shape=image;verticalLabelPosition=bottom;labelBackgroundColor=default;verticalAlign=top;aspect=fixed;imageAspect=0;image=https://cloud-icons.onemodel.app/aws/Architecture-Service-Icons_01312023/Arch_Compute/64/Arch_AWS-Lambda_64@5x.png;" vertex="1" parent="1">
          <mxGeometry x="740" y="760" width="100" height="100" as="geometry" />
        </mxCell>
        <mxCell id="f1ncYs2R5OoKq9qTf_Yw-19" value="subscribes/receives messages" style="endArrow=classic;startArrow=classic;html=1;rounded=0;exitX=0.5;exitY=0;exitDx=0;exitDy=0;entryX=0;entryY=1;entryDx=0;entryDy=0;" edge="1" parent="1" source="f1ncYs2R5OoKq9qTf_Yw-13" target="f1ncYs2R5OoKq9qTf_Yw-7">
          <mxGeometry width="50" height="50" relative="1" as="geometry">
            <mxPoint x="330" y="640" as="sourcePoint" />
            <mxPoint x="380" y="590" as="targetPoint" />
          </mxGeometry>
        </mxCell>
        <mxCell id="f1ncYs2R5OoKq9qTf_Yw-20" value="" style="endArrow=classic;startArrow=classic;html=1;rounded=0;exitX=0.5;exitY=0;exitDx=0;exitDy=0;entryX=0.25;entryY=1;entryDx=0;entryDy=0;" edge="1" parent="1" source="f1ncYs2R5OoKq9qTf_Yw-14" target="f1ncYs2R5OoKq9qTf_Yw-7">
          <mxGeometry width="50" height="50" relative="1" as="geometry">
            <mxPoint x="81" y="770" as="sourcePoint" />
            <mxPoint x="370" y="645" as="targetPoint" />
          </mxGeometry>
        </mxCell>
        <mxCell id="f1ncYs2R5OoKq9qTf_Yw-21" value="" style="endArrow=classic;startArrow=classic;html=1;rounded=0;exitX=0.5;exitY=0;exitDx=0;exitDy=0;entryX=0.5;entryY=1;entryDx=0;entryDy=0;" edge="1" parent="1" source="f1ncYs2R5OoKq9qTf_Yw-15" target="f1ncYs2R5OoKq9qTf_Yw-7">
          <mxGeometry width="50" height="50" relative="1" as="geometry">
            <mxPoint x="260" y="770" as="sourcePoint" />
            <mxPoint x="395" y="645" as="targetPoint" />
          </mxGeometry>
        </mxCell>
        <mxCell id="f1ncYs2R5OoKq9qTf_Yw-22" value="" style="endArrow=classic;startArrow=classic;html=1;rounded=0;exitX=0.5;exitY=0;exitDx=0;exitDy=0;entryX=0.75;entryY=1;entryDx=0;entryDy=0;" edge="1" parent="1" source="f1ncYs2R5OoKq9qTf_Yw-16" target="f1ncYs2R5OoKq9qTf_Yw-7">
          <mxGeometry width="50" height="50" relative="1" as="geometry">
            <mxPoint x="440" y="770" as="sourcePoint" />
            <mxPoint x="420" y="645" as="targetPoint" />
          </mxGeometry>
        </mxCell>
        <mxCell id="f1ncYs2R5OoKq9qTf_Yw-7" value="TestingLambdasSNS" style="shape=image;verticalLabelPosition=bottom;labelBackgroundColor=default;verticalAlign=top;aspect=fixed;imageAspect=0;image=https://www.svgrepo.com/show/353462/aws-sns.svg;" vertex="1" parent="1">
          <mxGeometry x="360" y="535" width="100" height="100" as="geometry" />
        </mxCell>
        <mxCell id="f1ncYs2R5OoKq9qTf_Yw-23" value="" style="endArrow=classic;startArrow=classic;html=1;rounded=0;exitX=0.5;exitY=0;exitDx=0;exitDy=0;entryX=1;entryY=1;entryDx=0;entryDy=0;" edge="1" parent="1" source="f1ncYs2R5OoKq9qTf_Yw-17" target="f1ncYs2R5OoKq9qTf_Yw-7">
          <mxGeometry width="50" height="50" relative="1" as="geometry">
            <mxPoint x="450" y="780" as="sourcePoint" />
            <mxPoint x="430" y="655" as="targetPoint" />
          </mxGeometry>
        </mxCell>
        <mxCell id="f1ncYs2R5OoKq9qTf_Yw-24" value="sends a message&lt;div&gt;using delay queue&lt;/div&gt;" style="endArrow=classic;html=1;rounded=0;exitX=1;exitY=0.5;exitDx=0;exitDy=0;entryX=0;entryY=0.5;entryDx=0;entryDy=0;" edge="1" parent="1" source="f1ncYs2R5OoKq9qTf_Yw-3" target="f1ncYs2R5OoKq9qTf_Yw-25">
          <mxGeometry width="50" height="50" relative="1" as="geometry">
            <mxPoint x="420" y="400" as="sourcePoint" />
            <mxPoint x="630" y="340" as="targetPoint" />
          </mxGeometry>
        </mxCell>
        <mxCell id="f1ncYs2R5OoKq9qTf_Yw-25" value="LogsProcessingSQS" style="shape=image;verticalLabelPosition=bottom;labelBackgroundColor=default;verticalAlign=top;aspect=fixed;imageAspect=0;image=https://static-00.iconduck.com/assets.00/aws-sqs-simple-queue-service-icon-1697x2048-dc7jy6cc.png;" vertex="1" parent="1">
          <mxGeometry x="996.26" y="287.2" width="87.47" height="105.59" as="geometry" />
        </mxCell>
        <mxCell id="f1ncYs2R5OoKq9qTf_Yw-26" value="" style="endArrow=classic;startArrow=classic;html=1;rounded=0;exitX=0.5;exitY=1;exitDx=0;exitDy=0;entryX=0.5;entryY=0;entryDx=0;entryDy=0;" edge="1" parent="1" source="f1ncYs2R5OoKq9qTf_Yw-25" target="f1ncYs2R5OoKq9qTf_Yw-27">
          <mxGeometry width="50" height="50" relative="1" as="geometry">
            <mxPoint x="800" y="600" as="sourcePoint" />
            <mxPoint x="850" y="550" as="targetPoint" />
          </mxGeometry>
        </mxCell>
        <mxCell id="f1ncYs2R5OoKq9qTf_Yw-28" value="passes message" style="edgeLabel;html=1;align=center;verticalAlign=middle;resizable=0;points=[];" vertex="1" connectable="0" parent="f1ncYs2R5OoKq9qTf_Yw-26">
          <mxGeometry x="-0.146" y="2" relative="1" as="geometry">
            <mxPoint x="-1" as="offset" />
          </mxGeometry>
        </mxCell>
        <mxCell id="f1ncYs2R5OoKq9qTf_Yw-27" value="LogsProcessingLambda" style="shape=image;verticalLabelPosition=bottom;labelBackgroundColor=default;verticalAlign=top;aspect=fixed;imageAspect=0;image=https://cloud-icons.onemodel.app/aws/Architecture-Service-Icons_01312023/Arch_Compute/64/Arch_AWS-Lambda_64@5x.png;" vertex="1" parent="1">
          <mxGeometry x="990" y="760" width="100" height="100" as="geometry" />
        </mxCell>
        <mxCell id="f1ncYs2R5OoKq9qTf_Yw-32" value="CloudWatch Logs" style="shape=image;verticalLabelPosition=bottom;labelBackgroundColor=default;verticalAlign=top;aspect=fixed;imageAspect=0;image=data:image/png,iVBORw0KGgoAAAANSUhEUgAAAUsAAAFGCAYAAADjKb1AAAAAAXNSR0IArs4c6QAAAARnQU1BAACxjwv8YQUAAAAJcEhZcwAADsMAAA7DAcdvqGQAAHiNSURBVHhe7b0HgBzXdab7d3V1mjwIg5wjAQIECQLMpBhEUjlLlmRLsuVsr9dp93nXSU7P6+fntf0c1kGSg2xZmRQtBjFLAAkwgsg5DoDBYAImdqr0zn+qBxwMugYNYABMuB9R7J7u6urqqnv/e869554bm79gcQCDwWAwDEtMNhXLlqm/yQeDwWAwDGFG2x/BKj03GAwGwzAYsTQYDIYKMGJpMBgMFWDE0mAwGCrAiKXBYDBUgBFLg8FgqAAjlgaDwVABRiwNBoOhAoxYGgwGQwUYsTQYDIYKMGJpMBgMFWDE0mAwGCrAiKXBYDBUgBFLg8FgqAAjlgaDwVABRiwNBoOhAoxYGgwGQwUYsTQYDIYKMGJpMBgMFWDE0mAwGCrAiKXBYDBUgBFLg8FgqAAjlgaDwVABRiwNBoOhAoxYGgwGQwUYsTQYDIYKMGJpMBgMFWDE0mAwGCrAiKXBYDBUgBFLg8FgqAAjlgaDwVABRiwNBoOhAoxYGgwGQwUYsTQYDIYKMGJpMBgMFWDE0mAwGCrAiKXBYDBUgBFLg8FgqAAjlgaDwVABRiwNBoOhAoxYGgwGQwUYsTQYDIYKMGJpMBgMFWDE0mAwGCrAiKXBYDBUgBFLg8FgqAAjlgaDwVABRiwNBoOhAoxYGgwGQwUYsTQYDIYKMGJpMBgMFWDE0mAwGCrAiKXBYDBUgBFLg8FgqAAjlobyFAMEPR7Q48vm6fNwc2VzLrBxn7c/g7wcw2AY48RkC/ikZepv8sEw0aCOiTCGxUCLgiDFwpJ2NGHBqksDVTZiaRuw44jZ8rps+hiXzWIREjz5rCvi6Ig4uj4CbkURzb4igpwj3+ECjnyZP/AdhN8jW0K20mEMhtHIjLY/MmI5oTirU6UnMbn9om3Iyt/0MeKyyWMMIo6TU7DmV8Fa2AhrZh2syVWIVctrssWqZMskEUslVFCVgghjtgi/N6ePQbYAvycP78gZ+Ae74B3qFgtV9qGYBhRN+YxHkZStSp4PFsvBzw2GUYARy4kENSor/6MFGCoVYg1pWLPqYC+fgviiqbDnTEJ8Wn0ohlUJ2cSazIhwpuRRRDFGS7K0xWgR0vocEDZajLIFYl3qc69kXebFqsxRSEMr0+/Owu/sg3uqG17zGXj7O+C92S5WqOynRVGOXS2qTWvTYBglGLEc7/DOFkuuL13nSRnEZ9TCmiabPLem1MCSv+MLGhCf2QBrqrzeWA0rLRYj3WxafSNFIEJaFDddLc4c/DP98E73wj/eA29Pl/zdpyLqt/bBa+lG0JWXc6fZS3GW80ga8TRcO4xYjjd4Jwf6BGn5icjEfBGbRFxEMAN7fRMSN89GYvVs2IumqTDGKIyjAO/kGbgHT6O44zic54/A3SXW5hm69CW33ebvkt/E32V003CVMWI53uAIdn/Jxa6xxcWuQfKBxUisnYfE0uliSVYhVlvqbxSRVLd6YIDmGhM44qbnZcsVEfQU1Lp097WisPEg3Neb4e7pkMIq55wWFz0j520wXEWMWI4H6KkW5BYG8qQmCWt6DexlTWI5TkZ8/iTY1zchPk+eN9UhJhbmiLrWVxC663TT3QOn4e5tgyebu78d3qFOeOK6a98mXXPTt2m4ChixHOvQ5XZF/zwRjskpxJc0wr5lJlL3LEVi5Szth7zisPRcYb3i6Lp3ugeFl/ej+PwhuC+fgN+VDweFfLYWcgI64BTubzCMNEYsxzhBv6Pxj/FFdUh/Yi1Sdy2GvXAKYlXiZicZF3mF1YNizdLDAZgrCQeHSiPrfkc/vIPtyD2xTYTzANztbVKI5fdWidWcvsLnYZiwGLEci9DldvSWIXH7nHBbPRP2yhmIz26EVZvW9y4JhvuIIHln+hEwxKcrB7+Tz+Wxu4igvaDhPwwwDxh+JCJ21rKULaamHWM0E2rpcvSdfaRWfRXijewvzcBqqA7P8RL7ShmnGfTmxT1vhbuzFc6bx1H4wSH4LX1AXsxs9mkazTSMMEYsxxK8S2JdIR4XsRHxmdWI9CdXIvngEiQWTxOBuHiFoDAG/QX4Ij5Bd7j5nTl1eb32XvjtffBP9ag153fkEJwWseyWLSeCqZ2loWi/TVwKlAjlVLH0poswTq9GrCGDOEOUmup09D0+tU62WsQaRUzr0zpDKFYjmy0id5ECyvNmn2b+O2/BeeU43P2dKvKhgMuxbKOahpHBiOVYgm5or4P4iklIPbQU1T95F6wZIkDicmug+CXgHm2Hs6cFxe3H4L5yAt6udvjNYqGpey1Fw4+p8ah/y5+xGvmes1+lxaYM8pk+HzEx8lSwrPCz+rlYgJgllqeIZPzWqUisn4PkTXORuH6OWJxieTL4/WLgyXmM33RR2LAXuUe2ofCv26QRkNdTIty1IsAGwwhgxHKsUPAQq04ice8CpO5ZhOT6+bCXTQunG1ZojVFQvFNhOI678xS8HSKM4mLT1fY6syJwYln2FYB+qtwAA8eWRz7l6HMlX8duAhqeihavQY9yAM4Aons+uUrDmaxGsTDnN8hvmgp79QwkFoYxoBdjaXqt8tsOtMF9/QTyT+6Gs7UFQVcRMYYZGQvTcJkYsRzNaGKK8Gl8Zh3sm2Yg9fFVSK6dB3v2pPCNC+H52v/ot3TDO9oF96BYkjtPwt3eAm8npxiWRpJli2XECrtaYTjs7szK/3zGhIabNa0G8SVTkLhxJhJLZiC+cAriC8RyFred89ErsZ7ZIFD8C4/vQOGZfXBePaGzhZjg44oPdhnGNUYsRzM5cbv7xZ2NWcj8zM2o+uXbYc+fEo5yVwJHkHMOCq/sR/6xnSg8sQf+UXGxxXjkjJ5YHfsIw11HBeK6629mQD3iiN/YhNRnVyJ930okFjWJmIsVfRH9ss62ZvR9aQOcxw/CO9mHWM3omKlkGJsYsRyNyN2g1RVLiWDMq0PVj65H8p6FsJeLYLB/8kKuqR/AOXgazuYjKL4gQnGoA15zD/x2sbBoxfHjA4MfFzjUVcWVH04jU4sjLd0EYlM4IFQDe800JO5bgNS6RTpYVImVSYvSO9qB/HN7UXh6L5znD4XXz1iYhkuAYske8C/wj1+vvpsPhmsJXW8nEKGw1R1Nf1gsqw+vhr3kwpaVhvwc60Rx40EUn9uHwrP75Plh+EyR1l1UDYqlRCgokoyLHE1CSdgI8LwGNseDfzoL77icPxNudGQRtPbL73QRq2YmpNJ0zQj4fnwaR+Az2vAEWUdH8jW86ErHhRrGHX+W3WAsy1ED7wKT8LIur5mMqs+uQ/Xn7xAREUEYrm6LJcnYQ+9EFwrP7UH2iy/D29el/ZGx6nHieubZJRGOGKXeuwyZn75Z+26tSdUVdUtwYKv45lH0//EP4O5qfft68tHopqECjGU5imB2HYpb/IbJqPmle5B6YDmsuswFKzPjIQubDyD3N5tQ+OYOeEf69DMxJuW9yLjFUYv8jljSUsvY78zCfesk3JMdGjbFeNMYLe5hfioF1Zpcg8SyqeruO6+d1OB+NdTNSLmhAmhZGrG81tD1ZsWtSSJx8yxkPnUTUvctC+d1D1eP2Te544RYk3uR/+5OOJuOat+kdktyVHs8uZr8KQPuec6B394Pv022VnHNO/OI1Yl1Sbc8wsqku05htabWhH2hQQz+iV51zUWGw+PyOwyGCIxYXms4oOGwvzFA4oYpyHzkelT/1J3DT1mk2y2VnDNrct/ZgtzX34Tz9GHt42Nfp2biGS8WZTm0ERCxa8mJhXlKY0ZjTRltbGI1qejMSvKa9mPOaYC9fKpOlQxO94eCOd6vmeGyMWJ5jdFYQ0/qsVhG1b90N9LvXQWrXlzvYWDldrYeR+/vP4Xi9w/CP9orIiAVfaQzm49m5GfSeqZbHjgO3NdOaKZ1yN8aXjXcwA+tTBFVe8XUcI759hY9jhFLw3AYsbzWFDzYCyah6vM3I/XwdYjL8xgHdMrh+ToXmvGSua9sgfPDw+KC5kQ9RXCTE0goCX8qxY0bLe3eggajB5yJ5IqlKA0Ok3eUhRYm40wncXolrdBAGpyucAmL8dR1YRhRKJbRTbDhysGRbzectZK8az6qf+4O2EumhskkykGhFDFwXj2K/Ne3Iv/NbQja8yIW8h6tookMBTNjwz/Wg8IzB5D9l1dR3HBQowPCOI8yyGdoXSbvXoDMZ9fqNEsu0MbrbDBEYcTyWsCkGD1FpD+0AunPrS2FwEQIpcAsP+7OFvT+D3G9Nx4Uy8kG6mV/kyX8bThds+DD3XgK/X+9Edl/eyUUP80EUh5an8kbZ6PqV6SxWjNDMzANt79hYmPE8mojFZpJMZIPL9SZOYnl08T9k9tQzo2miykVuPDEXvT/75fg7u0Q4XTDu8bNaOXb8PqxvbECeAe7UPjeXvT+ydNw97SKaEYIoFz3WIMI5vr5murOvmV2GOvqGAvTcD5GLK8WrK+lpL1cqzv1sdVIiFWj2XXKIbtyOYXiq8eQf2QnCo/tQVCgUBqFjITXJi1FOuvC3XYa2S+/ivwze+EeaivtcD7sv4zPbETqnsVIPbRM11LXasHplwbDIIxYXi3Eugl6xaqsSyJxw3RUfXAt7DmTS2+Wwffhne5D3//zvKYc4+CD5pPkyLdheHT1xwD+kRyyf/cSct94M3x9GJKr5iD9rlWI38j+y6QIrhFLw7kYsbyaBB6S9y1B+uM3whJXfDgrsbilGf1f3AhvT7vGUKKabqYRyorgZWJoUbUFvyWLwrMH0Pe3L+o880jEJbfnTULNz92DxPUz5F4ZsTScixHLqwFdOtsKs5zfvRDJdfO1cpbF8+Ee60BxwwEUvrcL/plcOCWv0sS7hhBeXi5g5sj13NMm1uVbKG4+BK+lK3y/DMzWnrp7MRLvWCT3aqq0WL72GxsMxIjlVSBgpvNMEqmPrYC9blYYeB4RF6lLJPxwD/LP7YO3SywhLstgXO9Lp0qKeH8R3iunkPu2COZrh6OtRrH0eZ/SH1yO1MdXIsi6ZrDHcBYjlleBWDqO+Ow6ZB5aBXu+WCwRMOjc2X8ahcdEKLedRqzWNq73SMCgfbkHzsvHUfj+PhS3HAnDhCKIz5mE5M1zkLh3NriYGjjTyjDhMWJ5JaEFI1YlZ+ZoAt8l08JMQuWQfZmoN/+trXC3ndKVFsHMQUYrLx/2DdsxBB05OJubkf/2dg1aZ2q7clgikPbSaZpL1Jpeh+BiR8YZ9ZAXgT27yfcwj6ZufD6wDbw28HppfzMSPyoxYnmlYHmX8k8XPHHzbKQ+ulrjK6PgEhDO683I/u0mXUiMqxMaRhA2OlU2vH3tyP3zFrg72CBlw/fKwKxPVZ9YL6I5VTwDqSYX6rvk29yHsbFF2Wi4+mzs5D7GbcRsJjlJaDKPWCoVPiaT4WvyHizZAtnXkROVcjNwLE22coGvNlwdWIT0VpjkvyMMl2OVgm7NyaDqF+9C1WdvgVWVCq2coYhVmXtuJ/Jf24r8V7aLqEqlMXkWrww5uSkiYMmH5iPz2XXIvHd16Y0h0CvwAvR/9VWxRLeh+ORBcclF0KLuC9cPkoZRzELEJmfUm7DXzkR8er3G0nLRtXC538TZMhBwhlHBDReV6+iFd6pHV6j0drTp9M0QEVzOZa82ds21xKzBcyVhMt80B3WWI/PJtUjdvbT0xrnQFWT2m94/ew6Fx/fA238mtGRMX+WVobRMb2xyEplP34TMj98Ce84ksfBECMvg7D+F/H9sRd8Xng/zZjIqYQC6yxwxl2pkzaoVgWxEfF6DrsZpzZHHxZNCoRS3PpYWC1IaS53WOjC4RyuU978vD783B19E0zvZDf+wbM098Dr64B3uhHeiG0GHWMFcy53ZpQafg+GqYMTySsH6U/RgzahF7Z+8G8nbFyLeVBe+NwS63M7eU+j7v55E8bVmxGrHyVIQoxmKVJ+D5N3zkf7UDci8f42IWtXbIjaE/CM70PPzj8J3i/JZWo8lLLH4ErZ4DBkk3jEbiYcXIXXrEl1UjeJ4OXCwzz3YisLGA3A2HoH7Sgv8Lvl+LuvL3hxap0YzrxpmWYkrgQhl0BcuEWGvnCJW5c2Iz2mMTL3m7D6F7Bc3wnnzNIJ+R9w0425dcUQUY2Kh+W1ZBC1ZEc2FoYscEfsaBCJQNWKQHjwD/6RYeOyPLPhI3DwDmc/fiOpfvAvp96xEYsVMtSQjExBfBFwWxGqoRmLpdCTWzkVi3SwEbkGtz+B0Xs5fjm+8j6uGyWd5JWBfV14q0oqpSL1vOVK3SUWMyHzud/Wj+MpR5P7pVV15MEZrwVSAqwOvNeMoRfSsmRnEJ4u7PFkUsQwUP2tSFYo/OKpdJvbyRqQ/tArpD1yvkwyYDMWiNcklK6KSolwsFHTtq0xpXK7VVIP4NHH1p9eKO2+LR5KT83ekvJjG9Wpg8lleMQLEl4hY3r9U3OpU6bXzcQ+3w912At7+LrEa6F4ZobyqiGD6fXnkn9wFZ1dLGEqknVLnQqszsWqOToNM3DYHqQ8sQ9Uv3obMx24QoZypgexX0iWOpWztxkk/uAJVn1mH9I+tQeKmWWESFvabcmPXj+GKYsRyxBGLQC6rPa1BrMtZw/ZdFV85jMJLh2X/pH7GcJVhl4fvwf1BszRarWHIFj2DMtAtzvzsOtT+0btQ80v3w140VV4rPyh0JYlPb0D6oVWo+c0HkHr/9UC3L16JKCXjMw1XFFNDRxKOtIpnZ986A/Hrp4QjrGVcsqDgwDt5Rhfc8g+cQawmLrWg9Kbh6jFwa3I+nDeaUfjBXrk3cgPLYUkDKAKZWNIU9m9qv2TpvQtAi9XvyoLrl7tH2+EcaBWvog3eiTMq0PqdjKmsBLu0htCyaWrZ1vzWvbBXTg5HyTnTyGjmFcP0WY4kTBwbs5D84FIk71oAe/ak0hvnEnTlUHyrGcXH9sDd1xHG75Vi7wxXGYbj+DEExaLUhgDJWxfAyog3MPR+yJ9hIPmFrUkNB+rOwTvWCXcv4yZPwd3RAmdnC9xd8nxXK7z98vqhTvhHz8A73g2vrRdBb04aXE/7PYcdJGJ/ppyLNaMO9tIp8Huz2ofpn87K+fFES/sZRgz2WfKyapNmQodGgJyrhbjmz96D9APLEJ/VWHrjXNx9p9D35Q0ofvcQvMNdiNUZs/KaIjWAS3fY109H/T98XC1IBpFfKn5HnwjjSeSe2ArnqWPw9p2hgoZvUpzDJ+EDBTEWh7W0Hvb66UjeuQip9dLQLpoWCuaF4PpMZ7Lo/z8vof//22CE8gphQodGmqS4SNNqUPWpteECZOUKuxRuZ89pZP96o1gC/TRExaIxJfyawstfCESz4og1xBGfVof41NrwvQoJsgW4B9uQ++YbyH11Cwrf2QX39VMI2tgPKm427zE3hvzQZdbH0mtSTLhciH+8H96uNjgbmuG+1YIgFS5BMqxwU2yTct7imluNGbjbT4k7TivZ9LCNJCZ0aCRxpLI1ZGCvbkL6Pdfr3OJy+N1ZOG8eR+6f31Dh1OVYDdecGF1xX0RLXOHE8umwF06pqGuEUQy+uNCc1194ai/y/7kT7uZj4n63I+gqyDHEgmTWIxXIgY1COeTvgq/7+6f64OusnS4Eefl8XixSEUSN31QrdMg58SURRqshreFNdP2ZhCXoFcHk+Q/Z3XBpmNChkYJuXNbTwpq4bba41dGWAAd2vMNtiHmWlGNz+UcNTBRcLMJ5oTkMPqdIXYiAM4EKKL55BP1/uxF9v/cs3A1iEfY4UgYSYfdKpStwpmK6v06plEf/TB9y//A6ev/Xc7pSpQ4EMbQpAsZjxpc2IfPTN4crVXJhu4iRfcOlYWrriBGIWFYjcd3MMGFGBEyU4Gw/qYMKptkfnXCk2t3XckGxcfa3Ivut19H/FxvgbDkhQpcMBZKW5OUi1masNomgNY/Ct/eh+8e+ieILBxH0i8UYgZVJInnDPCRvnwf7erGM82wAjGCOFEYsRwwRy3pxw+czpVdEbKVUPm9/J9wdbaHFYTzw0QXd1pSlU1CL4lZHhfPQwnP2tqDw7F4UvrMD7hbO286FIsnR6JG4r9oXKcdzfB0tLz57ALn/2IrC8weiQ43Epbem1CJxy3wk71kk7rkcI2oZYMNFY8RypJByyfi3+IyG8uElLNxFD/6BHvj7uoCMfKBSF81wdRBxYRiXu7MVzktH4YuLDXdI4CJHn7uyyD+7SxM1F589LK/J7a8gpOiSSMs5ZSwEVoD8V7Yg96XX4Z3s0ljdKJJr5iD18ErEJomHw9MyejkiGLEcCUTzuPxAjHN4OXLJFn0IXFvHZRByX1bKbnTfk2EU0O3A3dUmLvZrcI93ll4M4T3MP7cLhW/shLerXe57mZjMkYYrVYp7H4jwOVuPo/cPn4J7sL305vnQs4nPb0TyI0thza4X1738NE7DxWHE8nKhm5MPEJ9bJwWzNhzdHDpiKdB1co+1w+8Rd830VY5u5Pb4p3qR//p25P71NQ0Hyr+4B7lvv4ncV15D/mvb4B3sRMBBIL3fpc9dKXh8CmbaUqu2+OJhFDcf1tlAZYlbiE+tEetyhWa8ojVsuHyMWF4uHHTMBbAW1cOaFx2bp1Mcj3bA59o6RixHNylxe/vycF44iuwXX0HfX/8Q2X97Ff1/I4/yd/GJAwiY8YeJfK8mHLEPfE0rV3h+H5wtzaEQlrEaudZTav1i2AsnIVYl58luIGNdXhZGLC8bKYFShq2ptWDoUCS0LJvPIOhlMkQjlqMesRgZ/hN0SiP3ZgeKjxyC+1o7go7itV11k4vYZSwUnz0kFuYR9VR0eYqhWBas6iTiq6bohj4pp8xdYLhkjFiOBLEwbMiqjxZLLkjG2RlcPkCXjTB6Obrh/SnNrtFo9UIxfGSN4evX6v7xe60Ygu6izjsvbDoYzikfip6/BXv5dCRumBWeu4m7vCyMWF42AWIUy/qMDvJEwSBhzhFmEDMDkA1jBN6rKqkmA9toyTkqQsjZOoWnd8Pv5Po8pdeHYC9s0tjfsKYbsbwcjFiOCCKWVQmxGIcJH3F8BG15XcjMYLgsRK+5Aqh/sgfFxw/q8hjwy7jigj29HvacKYhZjP011f1yMFdvJGDhrUrpDIpycCScMXs6Xa3SvIUGw3DQwHUDXY7E3X9Kc2WWxY4j1lSF+B3Tw6z9JknwJWPEcoTQpQW4JnQZGGOpYSbsNzKukGHEEMV0Aji7TsI9cW486FlkF2tSGonbZyJWn5ayaMrfpWLEckSI6QyOyGUG2LEe4SYZDJeOKKGIn7OjBV7zmdJr50OL0r5+lmYmkoIYvmi4aIxYXibiCCGIiXvN4OSoHIIMXB86bc5guFySMQTJAN5b7fAP9ZZePB92ESWYTFgXzzOW5aVixHKk4JS3qGlvalnKZsqpYSRhWFM8gH+qXxNJB0z6W6ZPXKc/zpmkg5CmEF46RiwvE3HA5T+W2gihNBiuOD6C/rwuZ1EuQJ1dRJr5XaM15H3q5eDNUBFGLC8TdcOZGIPrfnMrBy3OaxnIbBjnxOD3F+C1iyseVQaFGFMQOXEEPUXZXNk8BL0st0YxK8GI5aXA8piXApaTJ0W21FySQB6jwoJULM2lNlwppPz1FVUsg2H6xlP3L0HVZ29G+gMrkLx7HuzrJsNqTIXllmW5wDJc2tlwHqYGVwp1kAWJBYuPXBYiYcOqq0J8RqOu6hiFLm1qS6teJhuRwXD5iFiKZUk3fLgMQ+nPrkXtn74b1b99HzI/tw7JDy6BfXMTrKnVUn6TogZSRgf63QfKeUT7PxHhldHLYZbCvQAMAGZeQLEgralpxNc0IXnbQiRWzoQ9dwriCyfBasi8XdgGoZm1Nx/FmR/5d3F9skDmKmerMYxfRNSCbg+JO2ch9anrUf2RdbAm1ZTeHEIg+1JMC2HcL5eo8Hvy8Ft64Bw4DWfbcTibjsFvFgu1h8mFpZFnxiIzPVeXwjViORxsWemaSCHjeijW4klILBRhXCzbskmwl02DPVtEcnJE4RxACnTx1WZ0ffRf4Xf3G7E0jBwsnt0u7NtmIv3JFaj++K0XLo+DkbLN/k7/dA/co53w9rTBO9wJ98gZePvl+SkRzt6CCIWUWc6L50qUExAjllEMXrdEXBNmP48vbkTyA4uRumspEkum62p6F4PzWjPOfGhALE3vh2GEoFj2ebBvbELqQ8tQ/bm7EG+6uDXPh8Kpk86eFhRe2CseUTO8vZ0AB4N0/YxS3aAHNYF0k2Jpau1QWPj6fW2tOSiTfHAuqr9wL+r+8kOo/uStSCybEU5tvBjY/6MCPLAZDCOE1OBYTRx+ay/cV08Cuei1eSrFmlKD1LoFqPn5e1H/vz6A2t9/EPY7ZyNWn5B6Ie57t1SSCZgbk/7gF/jk16vv5sPExpFC4PqwmjJI3r0AmY+vQerh5UjePBf2/MmwuM5OQi7ZRQ7UuIfaUHjpAIrPHtTjm4XKDCMKi1NeLL+sp8IZq0qEKQMZgXEJg4oxy9LYTC7AZzVUSX2ogT23AfHZjdodFXT2SV0RK5MGwARxy/8su8GIpfZLMs5MrD8WsvjseiRun4PMR1Yj87E1SFw3A1ZjdanghR+5IJ5YpuxA787CO9GNwg/3ofDMHnj7u+QYE6eAGa4iBQamu/A6GWtJ9yiG4ExWl8cIckVN5qIetIinluUKoXHApNb2oiZdosKaUiXHYiJkKcNFEcy8eGA83DiP9KBY8heqPT1h+ywLgfb5iMIhed98pH98LVK3L0Z8Wj1iqUGhFJXCEceso1lgnJ0nUHhhH9yXjotQngktygnW12O4SrAW6+J58ijlzKpPwppTjfiqabCva0J87mTYi0XwZjVGj5ZfCBoBYlEy63/uiW3IP7IdxUf3qrWpy12MY8wAT05uvjTCsSpbLMlVSD6wBIn1c94WykqgOIr77h5tg7uvVdec9o/0wG/rh9/Zrwvk6wL8bIG5aL4RSsOVgjWZKdhYqMV74TK9seq0iBk3cam5VPPUKsRn1SK+dDLiC6bA5pzxybWVl/cS7rEOOG+dQPGHh1B4TLym5m41BHTJlHEY7DFxxXLA9bYsKTh1SKybjaqfWA979SxYddFLQ5yFLWxBXJ7TIoqneuGd7IV7UIRy+0k4W06GcWo5EUe9vFZYgEysmuFaQINAc1iy0Acinrb2yceXT4W9hK71VKkDjdr9ZM2sE6uzuuJ+eS6W5h5uR+7Lb8LZwKV5O7RuqFheqwXdrhATVyzZv9PjIX5dHTKfvBG1/+1BcSPkDld4g5ndxWvtQf5JcUWe2AXn6UPyYhwx2SiOqJXjmEEcwyhG54RzQDMuAioue/L+RUj/yGqkbluCOOM0K+3XZFC8GA6572xB31++AH93j0795bIX44mJKZbS0iIVl1a0GlU/eSvS71wOe/m0C7ekrg8/W0Dx1cMobjoM55Xj8E/2he52T1YuJD8vG4/DAZwKy5rBcE1g6A9D2nTA0YLVyFHvWnHJxdO6fTaS75iP5Oq5iGUSF64bchzvRBeKbxxD9l9ehbulBf7pXDj7Z5zUA4ol5X9ijIbTC6E7kozDXjYF6Y9ej8z7V+ssnAsVBiYocHefQvG5A8g/tQfF5w/Afb1ZhDKvI4KxtFxGJv+lSJrsQoaxAMupllcpt1L+g17xlo73wDvUAf+MGABdOQSnsgg8Kd8ZW3NiRtYTeZ39ofasBjmmWF/9DoLTfeFoObnYQdJRyMQaDZeWlHNo4ysbVCjrfve9pTeGgS6G46GwSUTyUXG5v7wlHDkXwY3VjS83w2A4SzaM2aRZmPn8jcj82Bok184PBbMC9zz3yBb0/+NLcF9uFUtDjjMO1smfcJZlrABUfX49Mj9y44WnhHniWpzqRv8/vYT817bCfekYgoK0skkG7MrNHwetpcFQFo5qs5ynrHBm0O5WuG1d6qrHp0i9uYAnxkEie3Yj3OZ2sVDz2j8aYx/+GK4yEyco3fF1JgJDg9IfuwGJm2ZHB+YyFCjnwHnzuFiT25F/bCe8Ha0IzuTUogz7I41QGsYxLN9002VjEg3tl2/tU/ea9SM+vVZn+UTVA535M6lKngTwT8pnj3Wr8I51sYxQjHGEdmLHEF80CdX//U4kbp6lU7nKQqHMO3APtiP3DXEl/vRFuK+KUPa7QEY+YzTSMNFIiYFQ9OG+dhrZf3hF3OtNamn63WI8sG5FQOsy8+n1SN25UAyVVPhi9O5jgvEtluJKB72uCORMpD6yAvbiaTq/OwpOC3P3t6HvC88i//WdCLI+YlVyieh2GwwTFQa4s48+58F5/ii6Pv8tFJ7fL4KZLe1QBg76pBNIvW8Z0p9fGwrrwIDPGGX8qgBDI8RrYKaUxPq5SL1jaRhwzlHrociujBUrvtKM7N9sRvGlo/Db+8UCFVPShAEZJjr0qEqRHn6uAPfAaeT/4y3kH9sFvyuLoNy6P/xM3IK9rAmpexchcYt4dEyOzfywY5RxKwMB18aJyc1aORXJdfOQuG5m9Eie78M70oHCE3vE1XhNhDKLGGfcMO+kEUqDIUTqBIPNOQuIIXT5r27RPK3anx/hkjMJTeJ68ew+eB3isxoQcO2q8ruOesaxFAQ6rSvz2XWwV4tQDkOQd5H98ibkH9+hVyRWI/9juIPBYCgLA86drSfQ88vfg/PWSfXMorCm1CLzobWwF00Tg5Mm59hk/CkCrXz2NdalEF8+Gckb5w4bJsSEALnHtojrfQx+S5+0mnJJ6HKM3XtquBhK5SXokyeDNv4dtXF/XeFzImPFNLuWd6gTue+8heKmQ6U3zodzzTmFMnH3XCTunK25N8fi8rvjTyw5ol3wwwQZ62cjPqdRBLA0GjcEHfne1YLc197Qm655AGlRGqNyfCG3NezD5iZ/DGxMacZG0RbXMm0D1UnE6tPat2ZNkm1KVbjxOV+vlferEgCjKVhG6HoOPp5u8po8TAgomFLfCs/uReHF/fBau3USx3nwGsctJG4XsbxvYXh95HNjjfEXZ8l7IC5B6qGlmiRDsztLZSiHd+IMCs/sRe6f3pC/5IOMozQW5fijyKgIqcQFuccFPorLyAkGDK6uScCaVw1rfg3ii+oQXzEJ8WUNsFdORvyGKYhfJ38vrkdsbjXiMzl/WhreOhFLZpXqc8TSdErHFAXQ40sRYnGjdzLeEbGMJaXmdBTC39xga77MWFV544ThRBxRLzy9O6ynY+gSjevpjtW/dBeqf+FOnbPKVGzlyP7LJuS+Li7EU4d01Hy8JzCdMOTFXaaVpyZMDNZksQwXNIiXIRuTRUilteoyiNWk1FKM1dJalNou7mKMjxQBDgZS8Fg7GILGEV/xPPS4RQ9BT1GEMtz8LiZTycE/k4XX0gNvXyf8lv6z3x9jBMZ4XqSu6CPWmEFi9QzU/t7DsFfMCK9jGZwdJ9H/9xtQfO4w/OM9Y2ZsYPxlHaJbJQXeXjYJVT97J6o+eXPpjXNhin0W7t7f+h4KT+yFf1paRsZTTgRrYLzB0kvXl094+6TBo2XDMDFLKrA+nyMW4/VMdivbDBHMqSKYDdU611lzN0bMRBkWccEpoJzt5Xf0agiN19EHv/kM3Lfa4B3oQpAVAaWg9ubh9+ZCC5RllCfKsjae9FMsxlhVGrV/8hBS9y+VhmlS6Y1zYQ7Y4htH0P/HG+C82owYrfQxwPgTSw7sVKeQ+fm1SH9gFZJr5pXeOBevTW7Ytmb0/+5zcN44HqbFN4xNOFDQLRafL0KUDHRgL3HvXCTvWYjUbYtgL2gS76JqkMsnT84+H0G0FhF5Iv98EUj3SBucPSfhvHQEhcf3IWjNIuiX87RKiVjGU85Tpj4U9U+8dz6qfnQdMu+5IXx9CLoshVyb7s9/A/knd8t1GBt1b/wl0pAbYdWKWP7oWiRWzoycreMdbBP3+3W4b7bKjSuG81YNYwepl1yumKOqsbi42QvrkHr3UmQ+czOqPrse6QeXI3nDHMRnThJXOx26weyf1K10jJGGx9Wt9D3MESnfbU+r10XvUvcsRuLWuYgvaUAgxTLozIkr70iZpcsv+4/1Isjzly1o60N83mQkb5oTdmXwWgxC+4ntuDQiJ+Cf4koD+dLvP3e/0cb4SaTBVp2umFxwa1YdMp9eq0vXlhvYoQvubDuJ7Bc3az7KGEfljPs9+hm4xyWX22Jo2JIpSN4yB8l7xYp8cJkKEpct5qCershJNztqIsIVRpeTTSW0bzQ+rQ724qnaZ2rNrNV1cKw62TiyHhN3PlfQSRQxvyQaY7E4lsQuaMvp77Svm6rjBefVQRFL3hO35Qz8kz3w9nRCs3hRMEcx4yeRhtQfncedScJaUKeLxGvuvTJo/9GxLnhb24GitOwm+HxswD5Czv4oiqudshG/aQoyP7EGNX/wEGp/4yFk3nW9Lr41mi2UeJNYwLcuRs1P3o3aP3oXqn71DiTuEwuMA0zSCOjvYzgS24Mxiw1P6lfx9cPanxuFNh6Lp8gzuu9j4wePI6UQa2NWLRI3ztARzijc5g44XFhJjeqx2IRPQMTqCnIerDkZpH5kBWr/9L2o+613I/PeG2DPYGjYGCvGYl2xHzV56yLU/MJ9qPvzD6HqZ25GfEW9jrSP3YQTrE8xeIfPwNncPKxYxmeK9TmjQZ6NnZZh/LjhBQ/2iiYkH1iMxLLpamWWo/jKYRQ3HoK3o0MsFPn5xgUfnXDUmGu6uyKS4rZyBc7Uw8uQfng5kncu1FUJmYy20pUIz4FWaq6ooT7+aXEFW7p0lULvQCvcQ21w95/WZY2dva3wDspzvna4Dd7JLvhtPZqeLOjLa5cOl7A52zdX6WlwV/mMVZ1CXLyg+Mz6MPh9Mt3zNDRTeUc+HLxiOzDK+/MGw+sROK7UKwvp+5Yg1iD3qFxXiLjn3sFOFP5zTzhmMAbccJ4hpWZsj4az8Pc4SH9oJar+6+3hQks15QNj+/7iOeS+ugXum+2yj1Q0ZhYyjC7oinKqcUG2OgvJu+ch/ekbkb5zqc4zvihYNrg8q1Rgzl9mtntwmh7XdG/tBrPh+wz50cdSBp287MfN9UOrlfG3sum625NF3KbWINZYrVnD6Vpbk+Tv6kQ4Cyhla4yh9tVdZH9p0F9AcfdJ5L/4JgqP7Q3DjeJy7oyuGUOCiayrSTPq/u7DmmhboxHKkP/mNnT/+DcRJOR+02y7uMt1VRk/oUMqlkVkfmwtav7nfYjPnqT9WuXo/vnvIPe1LfJMCiFbM6OVow4mW45V2YgvqJN7uh6pOxZqjGSsliPbrFWVwxAeiqJ76LQGRHtbxFrc0SlCKGrMMBZutOA4TY+PrA0+Q5FKz1k+SlajCqds4WMp2JyB7HJO7CuPr5yCxKoZsJdOhz1nsghrdfjZSpHv9Rm32dIL541mZL/2Ctw3TsFvz0nDHt21NOoQsbSm1qL6d96B1L1LYc+fWnrjXAov7kPvHz0Fb7vcj74iwFjnUcr4CR1ioRarIXn7fKTfu1KTjg5tiTWAuCePwre2w9l+Utx0+ekXUY4NVwG63nkP8YUNYk0uQOYTN2oeUntxEywKZcRMrKFwTXd310kUnt+Lwvf3oPDMfjgbj8DZfBzuztPwmsWdpgsu5UFn4WRlo8VJwVTRFLGkNSriBT5y42ucuUOLk/vL5/h5roLoi5UatMvxjvfCO9wFb5e47jtPiTvfqsskUzA5Kh4qbniOZZH9mMXf4tz0pmqxoqu10WDZ9U90y++XD48FC5MRC9KIWIvrYc8LJwKUw+/sg3u8Dd6h3lEfwjd+QoeIFObkXQtVLMsWKCnkdLUKT+6Be6At7K80jB5oybEfT4Qi+eAipD+yGlUfWatu7wWtSflokC1owmb/SBecN4+h8Nxe5L75Fopyv52XjsLb06HrwXDwRHMylhaee3uTMjNo49/R29DPSiXvFyFtycI7eAbu1hY4W46rJRv0iCstAhzj5Gn25cnhz/azyr+yUFxrUkgsn47YFBHZWKARHAFFiMJ9MdbqtYDjOjG5l9NSYmVPg72gvGXJWXReqzQu29sRdOVHvViO3rO7GNgi11aJtVi+n5LQ3fLO9MHXvHujvLBNQIKcqwthVf3aHaj+yTu0f7IiRD9oATp7WpD9583o+vhX0fvLjyP/xS3wt3VJxZWyUSdWaV0inDVzpULF0lKm5Pj8Dn4XxcI/mkXh23vR99vP4szH/gW9f/kcCpsPqKutVmsFJK+fjaofuwV1//sDsJc0SaMglu9YQOqZt78DQUf00hOxTEKtTl13X2/k6GbsiyVb21yA2OQUYvXRU6c4Que1ibmfjw5nMFwDxFLiwEbyzvnI/Pg6pN55HeKLpkam1RsM72fh5QPo+5Pn0P8XG5H/7i64LZ26NkxQKIqlKmWD/dKDt+FKPHWIM4OG5q/kxteH0yk5tPppA9/DPk12M7ritjO2l3OinzmM3N+8gr7f+T5yj++Ae7SdnxwWxgszzCZx8zxU/cR6pN913dvnxSxHoxGxvnVlR3Gv/Q6O0pVHuxzqqy/sOYwSxr5YsgAXA1iTRCzZokchlqV/RtwwY1mOHthHKRXGXjoVqfevUNc7sXT6sIvKDYgrQ3uKGw4g/51t6P/SZhQe3Ql3eyvAIsAMP+yTzlC4wo+dRTQmnAkkTwZvhEk4xNqJ1SSlLLE8ycYclvy7SjZaQOziOe/z8nfpEGdhzTp7HtxseIfOoPDUAWS/+ApyX9+i6QGdt45r/yk4Ch8BRYXJP9IfWBku5byKK5QmQ7d8NMJwPPnJ/uk80CvGSdRpikhyOmrZdbFGIWNfLAmnljWwUEdnMGGHfdBX0HAQw+iAgyUUgZrffxiZD92gC/NfqD+O4T/ukQ70/e2L6PuDp5H7x9cR9Ij1IkLGtWEu2A7SGmPijW6x+Lod2Yr6SLGzpqQQX9OI+J1NSNw7I9zuno747U2Ir5uM2ByxghK27O8N+iyPI0JXwUJcXIohVi/nKA5Q8TFxz7/wLHp+4z/hbBXBlLJ5Ibj2fepdy1D/9x+EvbKp9OpoRq4J+6K5lYHxl2yEwjGGUSr8gzh7lmM2dIhTxJwY7HfORNVn1qHqo+tKb5wLl4/IPvo6Cl+hBdKmfUuGawRDvXLFcEDuA6uQfv/KcIpqahjPQBo5uq2F5w+g8L09cPec1lFoHTTRAZPSfkPJiTDqEgbcYrouU3xRA+ILJyM+vR5xxkjWZsI4SYot81tywIauNKEG8nxZ4TkS3k+3Wrae/jAlW1sPvOPd8PaK+3+8V77F57fI52lVyjHKnRdPhRap/OPkicSaGUg+sAjJ+xcjsUKsxoipuoo0+n5/USzUPch/azvy39slxxh0vqMFueYM56v9vYdQ/St3q8U+tCFkNIF3pB09v/goiq81h9M+RynjI3SIXrUf02zWiTWzpLCVX5yMsy6c3SfhbW0T94CrN44Po3rMQddbKra9sFHd7vQHr9dpb7TYomAfpHOgNVy+4Ls7UXzugFp1Wvd4H4fqhMZNMhjdC/v8mmpgL56CxLJpSDDxxn3zkXqHiNMdC5G8bQGSt8xD4oaZsJdPh71oKuz5U2DPnRxu82Tj3wtkWyIW58rpsu8M2Ms4t3mSiK5YorPrEG+o1v43hvxojC9jNQtyjiyfZHCEBp9S3EQsKb7e0Q75PVntV4+Ju26JgEb22cpxGPQen1Ovz5mMYmDE/ZzvuNawcSl42heduHlO2BAO9Rro7eUdafx2a4MzmiNUxkfo0IBYLqrTAh8pllKgGPfmbhOLpLXfiOW1Is80emlU/dJtSD28AokF4k5eoJKzkct+41Vk//4VeHvEK6hNhfcvaqpqvwglLcBCXpeJSD60GJmfWo/qn7kVmQ+vQWr9Qs1zyRk46gbSCryA+38Osi8tQn7enjdF08GlHlwuFvJ1sNdJ+asTEevrg7evQyxb2T+Q/cuVNxFMvk6R8Jp74G5pgdfZpdMfOZ0zEn6/NALMYMRE18UfHiytcx/d4Fx1SmKZuE0aoptnw6qW6zz0GjPjl3gM+Ud3yu/v0uswWhk/oUPi1wQF5wIJCORGXUyFMIwsdGX7XFhLRbw+sRKpu5aWEikMg1geuce3IvvFTSh+Z68Ij1iKUa46l5LooXtchLWoFukfW4n6v/sY6v7w/aj+3O0qaOzz09yJVwgKGEWu6kM3oe43342Gf/wE0j91owh2o54Xzy9Mkns+OlVSxMN9qQXZf9iM/i+/rH3swy3sxUB35srMfH4dEuvnyv7se43ef/Qh92I0WcMXYByIpVRCKR+BWCzhuisR8J5w1G0M3ZxxA9sw0QmrIYXkujlIv2+lioqOhEbgn+5F/sW9YnXsQPGFQ/CO9YTHGTpyyluugysxWNNqkLp/ibj3q5D+xBqxIm/QGUCJ62chPrUuFNor2WDKuXEetL14GpK3L0L6g6uR4Xl87Aak33Oduuyg9cTZQkNFjSIu//z2LJyXjyH/yHbknxSL63hXaYfz0dCbJmkYHrxOM8PH54lrLlasdkOMEjTZ73DXfAxp+/iwLKmWDAliv00EnCoWLkbFnzyG7tB4oCjXuxjTudPJexcjfffyYeMoOeLt7DiBvr96AcXv7YN3pEeEVYRuqFXI20jRYeD5pDSSd81BzRceQM2v3KfLGnB+clSOgCsNZ+nQkk3fvwI1//VeTSuXet8SxOfWhGJGfR9aDFlGq234ZwpwNjSj90+fQfHVI8PGBlMwEytnIfXAEiQeWCCWs/xehhQNPfa1QoRSp2mqtTIE1lsG5w9jPY8mxo1Ycm4pZ4FEwjAFqaAxk5LtGhBoP2PVp29B6o7FpdeiyT+5Hdl/fRXuy6dUOHUefznEQmM/V+L9C1DzO/ej5n88CJvp+SIyTl0rNFnxjHpU/9SdqPmtB5H+yZvEAhWrOl++vMY4y4hTHPf1IvvPryL71VfPt0SHkOBMnw/LcRc1aFnXZTeuqQaxnsnvYH9wVNC5xswW9XEswF8xtgd4pEColS+tdXL1bCTvXhS+PhSpdFyBz918XDM5m7nhVwFW1qIHa2Y9UvcuRPpjaxCfP0ksjfJttI56bz+OPOd0bxCLqiMnFhor3JAGjo2j3E+by0q8U9zu969A6s7FSCxpUle70oQbiobiFHSFRq4j7x1th3u0A97hNrgHTmu4kne8E5rK7Uy/JtHQys2Aan5PJW0vLUZamlyCdwpTu1WrRcjG3T/Z97bbPPA7S11FXGoi6MppPGpsakaD9aMscvaXctDJ72WOzn74p3rlWvD8KjnBKwD1r+CLxbtUQ8Q0Q9OQc+G15HUtPrEH3knxHkb5AM/YF0sWMG5dLhJrZiMllaesxe+Jiy6FzvnhEXiHOo1YXmlY/9VF9pG4Yy4yP7NOkzIzLKYcTKRLccp+4zUUnz4E/1jJ9S4Jh8IKyE0qHUdXUx9ciaqfuhWpWxdpvGQl6KSEPIPJ8/A7KSwikkc64Ow8CeetYyi+dgTOlmYU35DnrxyBu+0EnF0tGknB/kO/vU+8mAJiFDJxj3ne+jvlNC/YPycw4S+Xv4gvmyKf9+FtPx2O3Msx1OsZ+DgFNikWIgeGmNmoq0dc+Mm6nk/U9EAKUnxmrZ6nt/d0eC66lXa4mvD+ewHSDy1TsSx3Xfy+vDZExacPlMTdiOWVRy2NAhLrGUO3JOwjGXpzGN8nVk7x+QNS8E3WoSsO4xxzAawFtVJhliLzgTUqFOeI3yDc/adQfGYPcv/4hgqZWiKD95Xbx2VkYzzmpFrU/Pb9SH9wFRLzp8i9tMtWxnLoHO0tx5D99pvIfnkzcv/wik6VLD5zEO7GZrhbTmt+RX+PWJkHemQTi3KviM/ODrhvnoL7kojoM/uRf3Q7Cj/cD0fOOygWQ8tRu3kqsObkfVqB9oJJsFdPh7u3RXNW0hJTS3rQx1VAC56uQ241puS3Z0QQG0vvngstXas2IwLbD6+zD/4RsVop5Nei60ncb6sugeQDS3QRuXIwZSJjTJ3npXEUa3g0h/ONI7GUjTFda2Yhecd8dXHOq5TyJ1vk4lN7dfaHEcsrjIhlTCpq+sPXI/3wdTrnu6xQst8q5yD/3e3IP7ID/qEzoVhQdAbDe5wPkLhxFjKfuQnp96yAPa9R3M8y8XtD8Nt7URSrken5Ck/sRuE5aTA3iTDuaReLhstE5AFOhWU2IA4UMgSNg4Wcr82Nz2lB0pKky655LMUqFYHzT/Rpt467sw2elCuvVyo955hXi8vM/rpyaFkUMakR8aNLLlYyXVLmrOR8b/05Ay45/9Df7oX9e/I5e2mTDlaed3yKMGcz8drJcZyXm8Mug6u9PjkHmES448snhUsAr5hReuNcmKGeeUedjcc1S70Ry6uBiqUPe8U0XaslzKh97oVnq8t+ncKz++DubuUrYUG8yuVoQlCapcMR6uqfvUNnyfDal4Mi4Yj7nf+n11F87qAIR5lRb1pHcqOYziv98dWo/vlbxR2tFWGIHunWZM8iLt7RLnGtjyH/1A7kv7ZVZ/+421rht4r1Ste3yg4Fhhbd2U2+/7zt7fe5v35GxDuQ43gHOsUiPQF3x0kR0n45XzlbOTet/CJokaIpjYdVlUTiumlhVqxjZxCc1ij28DsHYCMj3+sd7VGjwJpfr2v3RPVfhvGkYhhsKq2wSMEs11BdKQrsUrCRuHO23Pv5GrhfDq59VHztMNw3pD52F8LZWKOUcRSUTmIaxMslBIYNIZojhWx2rbgAtBhYCQ0jTZCVytJYhcT982AvnlzKEl4edvBnv7QRzs5T8leEtU9rS96r/m93IfOj4s7zeFECVILTW4tbj6H3fzyB3v/yPeT/ZTv8FnFLaZHVJcPcAJeb2zIlAqT5K0UYxeVkJvXik0fQ9zvPoec35Dtf3AO/rbe0cwQiYpxFlPnQatT+xgPiZleX3iiHJdfpNPr/9w/gHhELPALtEpjbgNSnViI+v1Huh4jlVS3q8mUifDqYJ+UgCjaUrjQQ0CiWqyjml8g4EUte6JhWEPdEp7bSUcQXNCK+cFJo/RitvDIEHuKzG5D5wGpY0+sirRq1LN48BmfDMR1s0YQQQ3alZcRg7vTn16qVwhCcC1lJxS1HkfuP15D9sw06WKPWHssE4/n40YFBweEPc2H0WNwGHc+nRZsX97IVub9/Df1//xLyz+wKB5ai4gnl93C9Hk4LzPyXW2Cvmh4KyJDdNaSo4MDb3Y7iq2KRHTpdemcI4jHFRXTTD65AfG6jnJN891VFGrdUHPbCpmEH3mhFuxta5B4Xw+TJo5xxIpZExFIqnHeoXcNKoojPmyQ3cbI8Y0k0ajmisE7SCqxPwl46WcRtsbqEUdCaLD67P3QvKWZMGjvA4GOtm4XMp2+Uhi56ITreSibZZTB74cldyH9zKwqPi2XHHKYU4YFclFcS1iYKWiaufZvFFw8jJ+eR+5a4/xsOidcjVmZUikD2Yc6oQ+aTa5C8ZwGsJhEZNujaBVFCk+rK7+wpyrEPSkNzXPahCJfeHwT7QZnByF46RTMtnQ2Evxqwq6I+pUlIolZ25MoF2ue7S4wb9gcP7nYYpYwvsWztg7ujNeynicCeJWI5VyxLnTtXppQZLh1WyG4f8evkGq+dhjjXz+FgWwTOC0eR/4+doVXG2VWDcXwwGzgjHFIPLEZy5Szt34tErDZXGsreP/0+cl9+Q/vBWGG1n/FaIOJHdz841o/C13ah+2e+juLLh+HTioqADQHDilLvXobk+5aJiSzqxm0wTB8nYlx88iCc54/CZ9xnOcuxNNhj3zIT9p1zRLxln+GmA48gbODic2vVC6Bol4Prrvt9OamBNGzGRj0cH2IpdS1WZWn8m7+vSxc/Yv9ROZhsNj6rEcyAfc0q0rglEM1ykbhhjs4oibLk1Op69ZC6kZoApVxlETfOmpZG+uGVSN66SG6c3CsOyEVAV7f/7zaKS38Svtx/tVSid7868PtpDXpiRR3PIvuXm5D7pzd0ND3SwpRrxuQYqXcsQfx68YA4MDY0+YYckpaZe6QdhZf2akatKBLLZyB541zELF7jKyxKcpoM76KFbHOgtUrOPeKehWu2c977tb5JlTNuxFILpQikf0pc8ZMimNJqlYMjiPFZ9bDXTNOO9bOzJwyXD0tTSiq75oWMzuTtS6OWf3Yv3MPtJVEbUmFESBhPmHjHfCTXz9O8klFQeJ23msXl3oXCU/vk/ovbTfd1tDSEOpIum7jTzkaxpB/dicLzcp5cSiICa0otEqtnI/XwMl3EjTN5zoOj48c6UHhij3Y/RfWH0jBgHs/YdHHFGcx+Rcu7HFvqYHxWAxLr5kET/kZAofeOdsqzIfd+FDPOTKuYWpQMFPZO95ReOx9rVi1Sn1gJq7FaXPar45pMCOh6qgs2SbOQR0HLv/DYHniHOqTxYkB56Y0SutLj7AZU/dxtiM8rH4A9gHeqB33/8INQKE9m5XgiCKOt/4vnUyeej/xU541j6PuD70tD0aHaEgVzWlb9+O2wl0ujEzvfsqQn5TMs6tsilqf6ELCBKAOnSFpzGmCvbdKYVB0Zv4IEMbl3cxuRWjtfA++jcPee1i2UoLEhmONPLLMuihsPwz0YvXIeW+70O1boUgbDllhD5Uijo2vEfGSFWBa1pRfPh6FCzs7jCNrFGmKqssGI1cOQLmuuWP43ift43cxh07hx+Vsm3XB+2CyWWk4ERIRyFNe7WLVUN7EAvWN9mhyjsGFv6Z3zYX8ju4zsm2eIOz5VrouI3HmhblLe5RoW3zwi4hsxMi5wpJ0z26zpV7C8M7OUI17FulmwrxdhrpX7Vq4bRrwGDfHbIZbloa4whGuMJLcZX2LJix74usi9d/hMOCpexj3R+bkLp8Je1QRrtlTsvBREY2BeFgyNidVnkLx7oc5KiYLT2zTtWDcTUpReHIAjv+IZJFZPR+KWueKK14TB30OR/dT9fv0Y8o/vLiWjkBs42izKobB88ufkHRRfOKCNOvvt2P94HgxmZ8D6urmaAxSOE16fc6BY+ii+chTegbbSa+dj8b7cvEBEk/GuV6igc1Rezjn5jiVIrJJGjgN7Zfor/azctwOt0mB0h2WgNMI/FhhfYskLn5CW+0iXbGfCBa3KuScsiOIiJO6ZqxZM0CeFNcKNMVRILIBVl9KBnVhUEDpHrA+0q0gEObnmgyvTwOWPB0jeMl8EYn7phfOhuHgnxAXdcBjFZw+GpXisDNZR0NMxeHvOwNkUJuyg8EeRXDMHyVsXAClpIOQan2MYyqHYn+m80gx3n3hS54lpCPvpE8tmiOVPa+8KGAb8WmkIrMlppO+/LnJpF8I6ybXeOb0RsbElP+NLLJWY/GdL4TmNwsa9CPLRoRqp25Zo30p4t8sXNENl6EJbYlFycS+rqsw0PFqDnP98tFuEolMbtXOmt7HvOLBgza8NV15sqiu9cT5Bdw7Zr78O540Tcq+jBxFGLdJIsK/WeasFub/arGtCRUF3lhMpEnfMDq/r4D72JK1PubStveAaNl57ycIewtl56LNqdUbNiM5ek8MwaxIneqQ+db2ea9TUVuKf7EX+q9s0oQn7XccS408sWRBTti4WVXz+cJgkgS5CGdgnpMk3HloUJoy9SnFo4wpeMqnAsSkZWHPrYFWL9TJkXj7huu3eyTPwWrgaoTRg3GXQbhygiNWlkbhrHuJzGiIrnN+bB0fRme9SVwRksHkZd2/UI9eIqdcYF+zsOB45IMnkLxwsS967BLFJ1ecO5PD6MUY1F+ggD3NxaoD3UHh9eJwFk8IBMwrlSGglR9bzcu+rbNirZyD9npWwptao51YOhgs5e07B2yXnyaQgPPcxRPlfNZbhL5IWi6vlOS+dkEdxxxm4Ww65qfEVU5H5/E2IzxJLhgWIhXEkCtJEQa4XA54tuX7xhcMsQCaus3PwtFQYikL5YmdNrULqwWXhFMkIfPl8kVMY94p12if3tcwUyTGDnDfjTAsvHYS7f5gBmik1SN6zVJMGh63TUOJiqfXB2dtSilstT3yRiOViTshgAR+BQs4hAbFFeMzkrfOQWr9IR9/LIl/n7GzRfmYOwo7Fbq/xJ5aDYBqt3FPb4UoljYLuXuqOpUi8Yx6seXVh/2VE348hikCswUbE50+OFC4Noj7Ypi5j+Z1EcOtSSN4g92GY5AvO3lbkn9gprjhFYYwXXyb3jfkoPrkP7jYmEikPXXGNDJDrc77I8VrGNNO4s/WkZlWPwpreoJmbzj/GpWOlEqj+3G1Iv3tl6ZUy8Ot8H873D6P43f2l8K6xd+/GrVhqlul8MSyI20/p0gHlRsY5aseWO/3eVUjeIe44R/EKsh9DIQwVoDUBcXG/4sNYhLQsPeaP5PrWtAYHwkpoKGU5kp6ENadWXU7NUTkUuXccCGFsJqMdAg6lj/bR7wvBayC/yz/eA+9wZziZgvkzh6B9jvUZsQwbwvAfxkoOWGZyiFgmJtc1C29Hh7wnjUhE0eX0U0u28KJfJgVPM0px/ffkXQuG9wa6s8j/YC+c7Sf0/uvvHoO3bvxalqxIrgv39VYx/Y+rVRM5WpiII3X7YqTvX6aZq2HZYgkZsaycQK3BsCKWgUInFo93sEvjITXZxEBloRvPGM2manXj2Xc8NBepIvfOa++F3yzHONEn90juz1gXSyK6xWWcuRQEQ2o08fBQ2OfILqOl4kbPbwgDywd24yXg9ewrwj/SK55RUd4rcwyBSS2shohIhUphtXDlfrNr4O4FqPrFW8UNn1I+xEtgH6rX3In8I2/prJ2Au43R2zZ+xVLhXYmjsOEg8o++Vb7zewBp7Xjza37rvrD/Mqp5NpSFAztWTfmKyPXc2aEftGWB3vL9x9bsOlgLG0UXytckWlzOwVZ4Lb1yVzn4M0ZrXFniOvDl7hY3epgyyoxZnI1TvmzKa54Ik1hxfkQiGSa1sKoycuWY3OQSrx+NiG4fmR+7GZnPr9duLF1iOgLm83TeOoGCuN8+7x0nDoxRxrdYigCyf8Q/ITdsUzMKG/cPOw0y1lCFxA2zkPnZ9UjeOldcGim4pv/yAvD6eBpAHZW5m/kKaRVykgAX5jofsSzFUtEpklF1WATX28tFw7rlj3EklCyjIiDeiW44rw3f5xifVi/ixNlRdKPPv46cGOCJOEXFbXJkPVabQGxm+tywrUrJy3dynZ8F1bBXTUN8weQw8qFcA0dvQu534ekDyP2rGCoc/Wac6BhWnHEulrIxqWjWgbu3A7lHt8ljdAo3uhLMI5j+yPVIvWc57OXTpIRKS8j+S5NwozysKEkbTJoQlWuSfcd+50AM4NCKxesaIC4NFZdKKFvxBAqBe6BTV2NU9ztivzEHf0YqhqAjC29Ph7jYUjYjGmh2c4SZ1Mv1OcqBPF+DvhnPWhY1HuReiVhqV8fFjkjzvHi+Iu7ME+p3RMeH8nc4W4+j+PQ+OD84En6uXPfKGGJ8i+UA6TiCriwKX34LxZeOiHVJ66Q8bH3tmY3IfHotan7zflhprpbH7NdSQMuV0YmOXC+rQURumLyVtDCYRiyIbHAYY5kJjxOlgRQC8RB0GdoaacDGrjdXnoKUMS5728v0guWtS6uWXR0RoTkCrfYgWxi+u4mp76ZUyb0Qgc5dpFhyYI7xsrt60P8Pm5B75K3SG+dD97v/b3+AwuZDZWzgscnEEEtWQI7AJS0Uvr0L+X8Rt4Ctr9z4ssi+HLBI3DwXNX/4IFIfXi4tOjO2eGGfjSGEbplckliTuOCZaPXS9bWlsQotmfJqaNEyjXLjxarUPs/TIrjs84wS1DFMwEgNX34ny2WZEXHCKbphJp+IaiuNkd8hDYoIZiQJS3O5qmV5sUWZ191mt4EF/0gPit/fj74vb4B34tz1gIqvHEbfP26Es/kkgm5p3DhTZxzcs4khloRiKa0qZ0wUntyL/LN7xMIU1zAChhDFZ9Yh/cGVyPzIDUi9aynsJZPUSh1uQbQJBS1FXypPo1Tg4frAxNJhDsvIxomkRCx11k6ZWiWfU8Htl63caPG4QH63NCZ+n1iWEcuisEzqNeIyzizP51D6fI98Xq5VFOxqitWXn2VVEfyYdm25Wpfy39iK4ubDYdiT3Gdn5wnkv78bhf8sJThhFnfmbBh6umOQiSOWJdiYOrtPofd3H4e7q0Vu5jDNa9xS1yfz0RtR87sPIfUJsTBnVQ87S2KiEYuLWKbFBY+Y4kY41ZHXrPzgDhFrxxYhYPhJuUpFi4sNFK2vcQy7KfyufvhRYqf9w7QM5XqXSWum1in7PIdpzDWueFJVZKhPxYi1GHTn4bx4HLlvvqmZ7zkJJPu1V3X9d293l1ixsp+c73hhwoklA3il9sE/1K8r7+W+9Wb4xgVgiETVx9ej5r/dj8xnbpYX5Dh0y7lNYFhBh125kPCS0xKKHJQRMfS80nFKLw2GfXF0TYdr2MYDvJa0KofpHmKYDpOWlJtXzRzBdOOHtb5pWTIrlM6guczrSeHOxOFsakH///syen7huyh8az/8E/1hv/J51u/YZsKJpbbI8qs1tdWmZuS/uwP5p3aGo6zDVEb2FdmLpyF171KkP7oGVZ+6Gcn7FsFa0AAw3CMvBZR5MdmPF1HWxxt6tfhbmYBkuGtn0XKUSjpc3aG7Noybrh8dX3WvPLyOUQ0Pfz8FaLhwnQvcCz2Gfj7887LQc4kh6GRCkFMo/OAA/OZugIKvEQul/cYJE08sCTupay347XkUnj2Evj99BsW3jmtGmwtZL7QwOdOn7k/eh6pfvQPJBxYilkrKlZSWVMpIQMHkQAaPMyY2+VHc5OlFo5VBPki3j8eKghaRutjD1B5+PkokRGyREGtqWLUdJ0ijMuzv5DUa2Iagr1zoEvFzLgvq+Z+/JPh9HCXXGapSDqrkhdT4vE8TUyxL6ChdwYP7Vif6fu8ZZP/51XClvOEGIggLc9xCcs081PzcPWj42o+h+rffgeT7F8OamxGX0UHQU5DNHQObA5RdsuDCxNjRnxHLgm7fcDF7Z62hYfaRyhv2aZbZR1xGXQaXojme4SVK2WqFl0Wuj86GyonYlWuc5DLrKPdw7i/7jxlnPIynbigPr6pe9Zapv8mHiYfLfqJA9c++aTbS71uJ1MNLEJ8/SQd3LggruRRgLuvKNFve3jbNAOOLa6IBxtrZPoxIXGNY8ZiEgUlZNWyFI5cXg1w4Vu66P/8gMh9fU3rxXJiarfD8HmT/5CV4Ld0aGH0WVv6eImp+9wFkfmI97FmNesxzEGHgwmRdn/43OFuOyzlGiMkYhiP99txG1P7l+5FcO7f8PHvXR+7rW9D9s98Mr8HgfkvOF88kkfrIIlR9aj1Sdy8rvXEuxS1H0felDXAeP6orYdLDMlyYGW1/ZMRSkSugqdlE26wpGVT92u1I3bsY9pKmMAh4mJHe85CKzVFBr61Hp56hUBxmFPjaw1kYzrbjcB49pAtIcRXCi0LnCnuo//LHkPnc2tKL5+Ie70Tx5UPo+53nNL9oObGs/u93I/Pj65BYMv18sZQGifkau37m6yhuPhp+J0/zInV9NMNs4/aCyXod7ZUzdJ2ooXDwJ/dvb6D7p74RpmsbPNKc9XRxt9TnrkfmIzcitW5h6Y1zKb5yCL1/8QzcH7ZKg543YlkhRiwHo26JXApaSlKZmbE7/YGVSD+0ClbUmjJR0NURi5IhM6G7pJd4VMJkvIVNB5D/2zfEamuRSniRVpv8Tmajb/jyJ1H1ufWlF8+F8/GLr4tF8+tPwD1aTiwdZH5uHTKfWYvUzVLJy7iRXGe7+39+F8WnDyI4ngVqpJKPIwOTYpmQxrnhW5+BvXBy+WvQ3ofcv7+Jnl/5bnmxbMgg88u3IPPu65FYMav0xrkUNuxHzx89Ae/NMxrgb8SyMiiW5koNwIpHtyYmVsyZHJxXTmgCgP6/+IG4kHuloA4/Wn4OYokyeJjWgU5Rq82M3k3OUed0D9fPdQGkeVGrJyoYmvPG45PErdS+uKHXkN9riTWeUzGIGnhgXxzzJ2o+R/aPjtQAxbWGP4Mp6ibJvVjagFhVIvJeaAxmtzQUZU3qQGNemYYtakkOJS+NeFtOvsOX+37p93wiYsRyKLQspbAFrf0oPncI2X/chNw3tqAgbiQzrtPFvuAA0FiCfa7Mf3jJ4hOKHfs7NcFyGZjMlwkgGLweKysEMV3tT7OoR52GCG186VSdVSXNWenFcYA0wIygsKbVwF7dJAIWbS4zc5PXwVlnEdWWkyga5TrrlMgy8LtyjpRtEUte6Ivtn57gGLGMQgotF2LiSG/+ke3o/c3H0fvXz6P4xlH4fcPMvZ2gaAKHvnzpr3PRGEtasHVSiTnbZwhqmZ4SITjeJZodoZZiWSYWilhqRu5xJJZKAGtmLewV00XAzr8+A3gtXfBODaSoO1/oaH1rfsmIgUlNaNJdkEZJxLJghsMvFiOWUYQGU2jpFH34Lf1wnj6C/j/fgN7/+/vIfv1VOLtOhrGZEx6xDOlGn4lI2SXXkjNPrMXiZjZmwpHbAb1j10e1uOFcnXDfmXBEvozlHhOrKT5rEqwZ9WGf5zjqr+TFiM9s0H7GqDR3xN3dBu9QZzg7Zuhu7L+sS2kCmCg33O/JhglNomZKGYbFiGUlMKBaypd3uAfFZ/ZrJzu3/KM7UHx2r2ZZcfae0qVe6aYz2W259ZtHJex24GL3Q0egLwoRyzYRO125MYKEiN2yybCmcm49K2uptrIEpim2YvEc79WZVGX7PsV9t5jzcl4j4kxowpjL4WI7xwKlqLLY1Axs+V32nMlqhZ8HBwzlmvgHpHwdl2vMZSQGujN4CZxAl+OIz6kF+8ij4jQ1B2VUg2a4IEYsK0Vn/XBebQro81B88hj6f+95dP/Ct9H9a99B/5d+iNzzu+DsOamukj9cmqzRBEXyQrNrhoWfs6Sh6BY3+kykxULLkqFY8ekDmb6HIq54fxHOvpZhrXV7xVQk37NULE0xrSi6YxnxWOBasG9ugrV8EphtvtzgDrP5MAzNb+0Xy1Aa4sHI9daliJtqYN8kbjznjUegfZ4cRBt3yUCvDrwzWrwnfOjQxcA6qjNe5AlFRiou17xm6AaXc6UbpB31Y2BBrSDnaVC6d0xc4B4RqYs959K1sBbUIv3+laj7vfeFpWoIgeOCi8Zl/+olZP/hlbD/clBQddDriStai+RHlqD6R29FYvWc0jvnwozrxdeOoecXvwe/pUuz34xVOCGA6+LU/OY7kHpoBRJLRezKwPRnhU37kf3Tl+FsbZFGe5AgctCm20XyoUXI/MRNSN+/UleCLEf/Vzcj//WtKD52GLF6KZ9mgKdiTJzlSCBCwdUJQ3gpB28Dr49mKDZiMTN572WIe0zc7NSDy1D/Nx8L+92GBvJLpWauxv6//CH6/+xFuTzyXUxqMiCYnFMvjUx8US1qf/thpB5YrunEzkOOw1jN3t94XETzKILOrLr45QR61MKiwVyg4k7bSyej7o/fh8QNs3UQrBxcnqHv//wAzgvHdKaVzsUeQMXSQeYzN6H61+6CvbApss+y5/efQP6bW+Ht7wmn+vL6GyrCxFmOBCIwDOQON1s2sSrFaqK7zlRYo3/jeYooXaYVzNkgTPbKeNSyyxqwz1G+z5pRIxv7LeU1rs8+APvhikW4r7TAO1yycsvB40zOIPVJscRWNYVTSkUwxhpBPy3pBiTfuQjx+ZMjhZJ9u54IZOHRPWF/42ChHEAaHI6C24unRw8QyXH83Z0ilGfkfkvDaITyojFiaRghLPg9BRS2N8PvZhxfeexlU5G4fzFiNbR+hoocK3AcxbeaUdx6NHypDEyqkbptMRLr58KaVxumxeOicmMIhkslVs5C5iM3a2xkFM7+Vp2OSutRU+ENhr/ZkePcOhPx6zg4JNW5TN8zV3vkcfze6PtiuDBGLA0jRBhYXnzpoM43jyI+bzKS6+eL21/GAuLgRjoOd8sJOK80awB12QkADFCfVo/kHQuReudy+VuONVZGxvl7ZON02uS9i2AvmRbpNhPndWk4Nh0Ja+pQIeSxLAuJW+YivnRKeP3KwAEzZ5s0YmcoluX3MVwYI5aGkUEqMsXSeV7EkjNxIlxjihzjCa2GjIicFL/BuzHioIbrJLXBefm4BmFHrUdDkrcuQNUnb0Z8Tn24Ls0lz0K6Suj5McwngcyP36jZrUJrMHz7HNgXmSvCeemobhpbOth15qHkT645nlw7D/bCqeHrZeC8+uKmQ3p/EJPrZLgkjFgaRgRdrsNz4e3qhHeiOzL8h0mA49OqkXzPQnGh68NsT+dpnAjmkU70f+Xl81YOHAwHgOjW1/ze/Uism6WhR6NZMBlwH188GVX/9Q61rsumYSvhdfYh//wuuAfa5HNDGgz5ibo0s/z++MI6xBdMjnblxfpkX3Lx0VAsY0zOa7gkjFgaRobSqDZDgNy9p0Xs2vTv8xBXMdZQhdSDy2EvmqwCO1TgYilLXfnik/vEfTyp8YFl4bEaq5C8ayHS718hjwvCUebRNiFABItWor16OlLvXo70u1YiPquh/Gi/wAB073AHcl97Sx47NUHGeXge4nMbkHx4mU4BjVqAzGvtVsHlmutcZXNwuJbh4jBiaRg5NOY0LgJ3As6OlvNEcABmOkrdshj2dU2I1SdkP3lx8K7MhiPi4r3VjuKGQ3B3nVLBOd8CLVmqTXVIvWcl0p+8EfGZ9SJCckz2YWp2otKOVxt+78A5MMHFFGkg3nsd0h9YFU5rjBr9FjipgbGkhcf2yHMROS6/PEDpuGxQ7JVNSL9vFbhaYxTO7lY4W5oRcI0jw2VhxNIwcrDPsZ6r/Z2E+9KJ6MWzaBFmEkisn43E/Yt0RFdnswyGllK1jfw3dqLwyG4dYdfsSBHEZ9Qj/cBy1PzJu5G4fibQLdacbGppXguYgb+H5+Com1z9uw8i89GbkFg2o7RDNIVn9yL3729IgyHXaWgVZVxvfwBrYT3sG6ZrsuTILEOC88xhFL61V86n9ILhkmGT9QU++fXqu/lgMFw69PBECINeB1ZjRizHyZoBp+xor1ihOtNJtMzZfEysJRHCwaO5fCr76PQ+JlKW2m7PboRVl9bXh8JEGzyeNaUG8cnViE3KwC9kwzhMZtjhQMrVgsIvv8tqEAv6XcuQ+dgNSN2/FPYM5quMFjY2CIUf7EXhuzvhvHpCLoEchPGvg65L2AD5yPzIDUg/dB3sBVPKXo8BOA2Vsa/eEXHnmWzDxFdeEn+W3WDE0nAFcJlYlhVT/i2eGg4+lKmjDFKPJWw4u1pEYPNiSYmwDRVMdmn25uAd70R84eRQCGvKu7AUTLr49vImxOfVIXALiFG4CmLhsb9O3WLZkcYmBWYkdYMWNK1YedSkFvMaxXKegcxn1yH18HUaBRDVr0gYA+nubkH/v74Cd/MJEbi8jnSf08dYcr/js2tQ/dPhIFFUv+cAOkmiyobf3CXXoNRwXInfP84xYmm4InDqY3CmAHdbB9L3cfG3MouQEXlNU7fNqYN3oB3evvaw8g/aNUbLSgQvaCvAaxPrqD6FxKrySyacRQSXyYaT6xcgvmwKAtFtd+tJBH0iFpyaKm6/HnewMF8uclzOyqEwJ9+1GFU/vR41P30X7GXTYNFNHsb6I1xILPfIWyh+Z49cOxFK9lMO+QiPby+chPRn1iB1t1zXproLHpfZ8BlalbhxhjRKrXD3tss5yu+nhWkGeyrGiKXhysA6SIsu68JaWKvTE7Vil4PWYENVuGTCGXGbT/SHIjYgZHzgJtZQ0FVAUHAQxDzE6dIOE8w94JazG8Ce3YDEDbPE4hQrd7JYpb4rwlkMQ3I4C0a2GEWnEvFgn2GWn5HfJ1sskK0uqf2HqXcvQ9WPrkX6XSuQWDPrbWtyGEHjKHnxlYNhur/v70fQmQt/7+BzYf+nfKfVlEbyngWo+swtsGc2Rk9tHIxcR+7Ha2xNDnNdsmEKRNdj8hOMW14ZRiwNVw5WRApc4IiVl0Fi+XTEmINyiHAMuM4siRRCd8fp0F2Wf2cFk48iHlzYLOjOq7DGp9aoEFoRLvkAnBqpiXVXz1QL1moSN17EzaqWz3Kuem0yFB1+B7+XYUfqrpfZeDoiflZVQpeBiM+u18XFEjfNRPK+xWfDgrTrQY59IauPc73d3aeQf2Qris8dhLe3I+xXlGtyDhyc6fOReMd8pN+7Aul7I5KMRKANB6/DnAYRzXS4jg/XtWd/LuFvH/5UJzwUS14iKQUm65DhChCIRdRXQOZTN6H2D96tgy+RldwPUNx8CN2/9V14O7oRrjzItnwIOTGJ4nHYd89A9edvR+YDN5beqACGMnFmDFekFCuWayo5u0/A3SPu6Wun4O3s1IzvUSFP7P+z5ohILp8EWyzHxHUzRBinwV4g4khXm6IzIPAVUHh5P7L/8Zq43nulIShE56JkNwSXG/7SR5D+6CWsNjqA/Cw2SH5nFj2/8RgKT4kl2yHXmYk1LjORynjHpGgzXFlYObsd2KuakPrwdaj+7G1ijTWW3jwfZknnkrn9f7IRzsajCNjVxyw7g11FWnhi/DEPpH39NCTfsQiZj64J4yuHGWk+B4o4R9j7xErtzsHvyYtoyEbBKpaWMBYLUx/l6xgUzoEocNCqOswqxeUbODLPtbpDy3iINRhBwOP25JB7bBuKz+6D8+pxES8RaMZBlhuxz7mIL2lCFQeKHlom4jyl/H6VUmosnC3HRSx3IydWrd/cJ79XGqHB8ZyGczBiabiysGRxQKXKhr20ETX/851I3jLMND/OdCm46P+rl5H/5nY4b5zQ5L66ZOtgwaSGiYWpAenzG8TaWi3HnatB7vGZIsYXYd2VhedREkyFbiyXarhMd9XvFLf7YAec144j/5/b4O44BV9EWnOJDu0vLYka3fzUQ8tR/ct3a1RBVD8lhd/r6JcGp0e7HeKzohslRY7PbEYq2k8f0JlCOl1Uc4Ne5vUbh1As2ZSYPkvDlYF1ju6dWEd+h1ht9XHtM7TnTCpfIUWMVACvm6KjwcXnDoivSvNUdmdW74GP8Cn79go+/ON9KL5wAH5/P2L1ScTnymdp5XHfS630PA8KpJyLbrTkLlUoB7n+zg4Rp39/E/1feAHewS61MnXxsXLiTrEWlznz+fUafmTPLaVgK4d8hXu0HcWXDiD37Te1S0CzGWkfcWmfoci1iU+vR3LtXPi5LLzWXvhHe/T3lj2fCY4Z4DFcHWg1xQJdukJjEBdJxa9KhaJWBlZYTuGzV0/TRMB+S6+oQRCGuwyuyNQCEU0u4cHkw96O0yhuPixWoSuusrjH9dHTAK8WXDun+PoRZL+yGfn/2ApX3G64cn7i0msDUEaYmJouPqMWVb94RziyvmjqsH29XK+98OhOZP9qk1yDNngt3bqSI9c8Ukt0mEaD94CWKK+33KFwQbSrHcQ/BjBiabg6sLLKv6ArH4bp+GLVLJikI9XlxEKtuloR1bkNIgbygiuVuJP9aqGVedZl5Wf5nFu/A79d3FARCh0xb+sTazbsi9N1yzkAc5VQl/h4J4qvHkHxxQMoPL1frF+OdrfruWnfJ8958G/nb6MVLY/2iiak3rUcmY+tgS1CadWUXweccES78P3dyD+yE86GY9qNocsSMx2bWKfs29XlcSMaJp6DhhXVs3FJ6efpjuu94mcGneJExoil4eohgkmLka6et/eMplSzOBsnUz5WkpWbAyeJG2Zosg3vyGkdLNJs4az3Q60lWp3cvADuzjZNmuvuOqHaCsYZilgGHMQQS4xoXOUwFlfFyOF0zjpFJici01OAe5gu8UGxJl9B4dsiYhubEZwuhJYxhXIobBBUKOUaiTBmfvQmVH3+FiQWi2U4jMhT2Lxjnej7X89pzku1vunWZz15vRfOm8f0GttzG1U0YxTniN/M/lBd3mJqBkFHP7xDTI3Ha8XP6C4TGiOWhquPBnU78E60a6ykvbRpWNFSN3F6HRI3zoHv5BCcycJvzb7dj1gGtaJEv4LTRXi72lDceBiF5/fBO9kuLmsutFwZsD7MMSqFq1Zy9UVn6zHknxZX+IuvIP+1rSg+LZbkvm6d1x5L8/vkuyiWQ7+O/Zl9nB4ah716Kmp++wGkH16O+OwGOT+60KX9yuC8cQT9X35ZLMpmoK8YRg7QYpXv4SUNesQi39MBr7kH9powI7v2SUag13pKrcaQxmqT8Lae0ugA45KbOEvDtUDEUoOsq+JIv/86pD96A1L3LNGKHAmtt7y4m5sOaMq24sYjcLe1quutYkdrbaioiJUV6IJoIkQUqSpb3XqKEMOMrMYa2dKITQ4XUaPbz7RpDFZXcRh8PB6GI+RyDmo99hVCl/+0iHdbFt4ZscROdUsD0BXOwe6WffIiMmICnzeST3g8ObfAFyFNhl0SiRtnI3nnQh351njUYUSNo/SF16UB+N5Ocb93wG8Rl5sW8+ClbWmtcsVMeZnB6Kl3LUXqfSvke8SiH2bNH8LuC87X57GLLx7Saah6QXj8ob9lgmBChwzXBnGVaU1ZM6uQuGcean/1ftgLwgxFF8I50IrCD/ej8M9b4R5guEtB1ECKsNZh+V+UxsgumpVdLL1QSWTvyWkR0FrEOQ1yGqdlioCKZcX56lzb5iy+CKW4/0GPWLVdsolQugfESt1PceyTHViFKCTx0ui2fqo8HB1nrChXt8zEYc2uFhFbhvR7VyN1y6Jwn2GgWFOY+/5uA4rfF2t5FwfNxAIdTsR47n0Oqn7+VqQ/vEqtdMakajhUBJqA+MQZZP92E/Lf3CHf2S/CL2+wYRru941TjFgarg0scbSExMLkqHXilmmo/pm7kLp/eWgpDgOzB3GZXPfYGeQf34H898Sy2tEuVqS8mRBLjmIVdQh+p5b2EjrIIjWffYUxeaTg8DXxYQf3DIQTeuR/1NmBGEyOGFvy2uBBan7mQm69fC7Iu7CmVyN5/2IRr9Waf5Nz5ysJqmfCjf6vbIbz/cPhGuIULn7ncF/L85ffTus9ccscZH56HZJr5yM+NWK+PikF7jO1W+HZfej74+fC8C8hVjPx1NLEWRquDQOiwkrM0dtWcWf78jpQYs+fFPY5RojOQH8jR3jjUxiz2SjWWb24iPIZsbrYdxeURtzPs7aogDzuwEZo5bFfjhYn07iJRcWN4TsD28BrjHvU/TRYnUIpx+A2cLxyfa90twuyv1h3nAnEDEzJd4pIfnCV5qNMrJkdCuVw3RAluLxGceNB5P7lNXH/c+G5axB5aYco+D7PT34DZyt5x7vUAo9VJxCPmiDABoPXuialWd65DEaQL4pg9os174aDRQPXcAJgBngM1xZacVLfOcrN/r7gTL9YXCIcmUS4UTTLwYqciOvADweI4gs52mtLBZaDUSS50frjRl0b2FTQeIBB8G8KHoPndZPvHHYbtC/PvxwUMVqhtGS9GCz5LdYMOddFk5G4ZwHSH2fi3hWaXIQj/pG/cwgUKm/PaThvnBThE2EfCKWiSEecyjnI9zAsyNt9GoErn5ffo/2jHPiJcMk5CMYYTGZRCgoFBOyGOJ0N36TJPUEE04il4dojlU1n4/SH4S7FDQcQny3CMpdZxdlJNjxhZRaX9vpZSNy6QAPZkfDClG/sT+QgD71HMTo1h2WUwI0gAad4ivVFq9makoJ960xkfnwtqn/6dqTfs0qs5ylhjGk5S3QYmGEpPqseiVXT4b7RIi5yj1ispd9VoWhxVg8D3P2DXWphBoVsGMvZMEwAPxsn+VyCuTnl3rjHW8WyFU+gzwnv3QTAiKVhdMB6rnWd/WTilp/s1aDyWINYPJzpkxrGRS1VZAoA+/zontvzxIJbNROJtXPE7a0Ps+oURS3FGuOc8oEclhogTwtQ+ynDw1UErTkm+83zGCKMuok4MrdlVQL2cvn+u+Yh/f6VyHwodLeTN80Nl8XgMhs62n4xX1hCGxY77IKYXguula5LBbNBoOU8tNuhHNyF302rNxteaw5c8Vg8v8jzkpf1uzlZYOEU+a2eDq75HPihZTzOLUwjlobRAwWrZPX5R7vgt4rVJOKjrl6So8wiMnx7GJFhpeVsl/isRtiLm3QmjDWzBtbUKrE+MxoyM7A+D+MIY2kRWFZ01gK6tAx4Vxea2+Dn8v7Ac/mn5yluK4WDx47PrEV8XgPsJVM0b2byrvlI3b9ItmVIirWr7jaTYDBz0YWgiJGI36mWtLjuOgNKfgMFi7NtOGikn6VoRV+it+HvzovgtXJeOK+1vNQo14XXmWFL5b6fhxbrlpYouyHoygdt/WKdlvpxx7FgmjhLw+iFqdLECkzcORPpj61B1advDV1XVvJKYcmm2HJkV4SO8YPeyTNwj3XouubekQ6dqeIf6hYLKyeiIz6tmmj6QdkGYDXhJt+dEStWLF5rvgjkIoryFBEP2RZO0yQe8am1b1uO+jH+r0J0BDocCKrkd+po9clu9P7+91B8/gj849nQii41OhXB9qjXgzU9g8Qds1D7Gw/rUhgXzMIuwlzc3ozsd15H8d93ynmIJ1Bz4UGqsYoJHTKMXmglUTgYKD69XtOvpT4k7uw6cWfniRt4sVAzGXaUL4buY1YsMo6cMy1ZnyOPdNFlc8RC04EhbiXBpODR1eeItYgIU6pxEbBYjVinA8HsYnGFXQacdXMRYlWCsZPO1hO69G9sagqJW2Yj865Vw4+SU1zFonR2ntQQqvx/7oR/sFtfLzutshz8ibSq5Zw1jOummch8fA1S77pOuwyGsxaZC9Q91o7C9/eg8NReOC8fCadnXkyDNkYwYmkY/WQZ18gYwTiS71yE5O3zdLYL1+Jm2AuFakQQYdS542KtBRTJ88RSxCTFUWMRghESAwZ+M8jdPdAGd0cLiq82o/i9fYBYriqWn7gJyRvn6JroF3Jxi28cRf4JruNzQCzmM9IQFMRVpjtd2uFCFOX3F+Q6i9an3rkU6Y+s1vV+LC7fMVyfsTQszr5TKDy9R2f8cLaPdgnwOo0jTJylYfSToEhJxYsFcLedgivWl3v4tFhBYsXVhGvwyB6hKFyCRXcWWlYigjpQROuR4TRiJenG5wNCebn9crT6RPzVhW7tgfPWMfT//Ubkv75VLLPmsC/wjFi+h7rg7juhmeXteZOi+xFLMM2avWKGWD4cdOkLU60NdAdUgrjuFEoujObuapftFOIrpmjYkFU9zMi9XA92PXDp3/jcejivn5Dzz4XX6TIv1WjCDPAYxg4UM1Z+WkAteRHOFhGa43APnUZgy3scCR8pK/MK4nX2h0mAv/Um8v/+Bgrf2gVvR4cmFxlYrEz7LEVTg/ZiaCV29cNeNbMk1rJFoLGns0VYG3kdfLj721WYK43jDK+xbNI4Ba4DV65vIKdiTa1GnKFFwzQUOlI+qRr2sib9Le72U3I+8r2VivUox4ilYWzByiqeMvsWuUSDf6o3DDM63QfvKJMEd4vFVlSh0RyWtMauMZzL7bf3iqvdiuILh1F8dj+KPzwozw/B2XoKXrOcc8ELBZJiSW1RUWJ/pC+CKb+zPRvGNIo1zbyTUb9LowHqw9yUHO0H+197i5o2rqKuA36tDi7JJu6139IjwifXs8hkymLB08KO6EOlkLOxsqbXqkjSFdekzYwwGEZkxwpGLA1jD7qLIiqa7CLLZSX64W45AWfzUbi7WxB4TtjXSCtJdqe7qwM2glZZ/u9KWTva7ynfxbXNmUCXUwubz8DZdgKFF/Yg939eE0tyB5w3j8M/kUWMVh9nHqlFOeScRGCYkYgB7v6xHl0ql25ufGadDsQMl49TQ6R0GmitNCbiksvntQ+WP77Sn87rJ9Yi1+ZxD7aD6d9oOWoi4ahGiJ8RMWWWI2Z4Kr50DEFvXm5CeD/GMkYsDWMbCmeKFVSKsVg2Qb8Db3sHnB8eEXHaj8Irh+Aeb4ff0x8KJke0aXEOk23nkqElxqmExzo02UXhmV3IfeU15P79LRT/cw+c107JeeQ0zRnPV89Z3dTS5yOIyW66BEXagru3TYP144tFCDnyLmIWBXNhMoNSfE49UJWAu+lY+MZQUb4A6voXfLmup+HnRfgycSQWNZXeLQ/FNMZlfWstOd9+XRpEG4QxLJgmztIwvhBLTRNXcCaNCJH2Y9Iam1Gno7pWg1hkdeKminVkza6R5xzASeg63OpeJsTKo8tIl5V9hyKqYXZ1EVqG6dBqlI3hRbSYNK8ll7AQ6zbgkrpMBnImC+90L7yTPfCPiovNoHHO8JGqpgmAL1KszkFEi78n+Y6FOjsosXoW4tNEDIfBP8M+0hYUHtmBwrMH4B3qDN9gns1Kz0WvqwdrYSMSt85B+r0rkFy3IBylj4Aj/Yxnzf71RuS+9la4yienZVYyy2gUYkKHDOMXDgT1U6RYvAc2ET4RRSaPsFdNQaxJRLMhowk5YrUimBz5plDSMtJR8QQCZhoqLUfhc0ojl48QIWBcpN8uLu6pPnjbxHoViy/IcRK6fF4dNlYtEchq+XtwUt7LhLGiDG/KfG6tiNZKJG9ZGLrlw1jLui6PiGb/H76I/H/u1uVyVSwpXDzdCmEsKhMmx2+aiurP34nU7QvVetWfGkH/l17S7PHum+LKc9yJDcYYxIilYfzCUj0QJ3kW+ZuWY0ysRiestAHdXB1lfls41Fvk/wZqB/vcBh64UYPF7Q40649sdulF/T5+aBD6faXnIwG/T76Hbnbi9jlI/cgqpO9fqctBREKrmN0Ex7qQf2o3+v/yBfgtYvHKayrmlcLfJ+0GMynZt0xH5qM3oPon75DfKMeI+I3sksh/dweyf75JzoONVbSoj2ZMnKVh/MLKqwI4ZKMIUtM4SutL5WVfJkeNS1ajDs6I5agb81kOPJctfL+0L11ydc9loztb7ru4yb8RhefP49Ja7AljKhGj6CWiBVM+o8lGmJtyUpUOwPj9ee06CHqdcCSex7wQ2ooI4pb73SK2nP3kO7Ca6sLZPuUQSz2QfZnVXa8XG6YxiBngMUxMWOfpgrIPTTepwBe9lT7L48i/qw5Fp7cYJh0R4eOgijWlWmc0RcVVamgRc1NeP0vEPy+fE8FrLyURpsVaiWByH/ndFNmgk0k4ukp9p3WhhT4EnlfQmUP+8d3SwEgjczl9ttcQimX5q2owGEY/DJ8SgXJ/0Izcl19D/z+9pPGnw0LrUASs6kdvQfXP3Q77npk6GKZTFC+CWJWIoIit+9opeHtb4Xf0lt45F2ZashgfOk0sz6ro0fuxgBFLg2GsQiONlp5Yt15zD4qPH0T/X76I4suHwu6FKOQjjBRI3DhXB2qSH1mB+JJJIn6lGNVK4Hdzek8hgHuiC14HF24rA/djir2pGdFpkRuOio9RjFgaDGMZFSOKkAtvXydy396O3CPbUdx0JIzrHEY06Tqn7l6iKz4m71uk6wOp5Um3vFJEMDWMijN9ohBB17hL7sukyxdx+NGEEUuDYTzAZCMJMQwP9yP3d6+i9/ef0nydOjA1DAyPyty3ElWfuwXpT6/Wv3Xlyoqg6nGAS757uP5O9ofqgNgYVckSRiwNhvFCPIzrZIo596029PzqE8h9Zzu81lKOyyhE57guUOZ9q1H93+6Gfcts7Y+8kLgF/M/y5bOTEZ/eUHq1DG4Av6sg+wbi/ovkDKOroxkjlgbDeEFdchFMOwZfXOPiS4eRF5e88ORuuCfOaChUFJzFZC+bjtR7VyL9vhVIrJ8rL8aBvFiEdJ0HoFefF5HMu7DqU0ismwl7SRPik6rD94fAufmc6cQFznQZYUYQjFGMWBoM4w3Ol6+N61Z4ag/6/+olFDcfgseZO8P0YXLWEud9Zz65FtW/eJeIYY0IXKmfkVYmrVPHF6uTAurrshrpz9wIe3mThiyVg+vBMytUwOVz85W696MTE2dpMIxjGFvJNHHOG8eltosbXJe84HxyzU05uRqJNTMRa7ThZ7Oarg20TEUxYpPTSH/semR+5Eak710u+9ZETrd0D55GcdNhFH/IRB4itoxLHYOYoHSDYbzDgRdxf/1Wse6yxXCue5WIIYPXmTykDBq8ziQks+phTUojPqMW9sImJG6eg+Qt85G8Yz5SDy9Hcu1cxGc2RgolYf7O/GO74J8UsaUfO4aD0nnm2iFh5oYbDOMb9h1a8+qQfO8yVH30ZiSvnxXpPl824u5zhlDfbz2D7N9tBupEKcdwpx/nhps+S4NhgsB0dEF7HsX/2IXsF19G/sU9pXdGHr87i9xjW+DsPiHWWHQ/6VjCiKXBMFFgPKQXIOjKw9lwFPlvbUfuO2/CP90bDt6MEBxIKr52BIVHd8I91BHm8Ry7g+BnMWJpMEwkmOyiyoZ3rBfFpw+g/0ubdADG43o7DO25HNH0GU+ZhfNWM/JP7BJBbkbQ1h/msDRiaTAYxiJhIgwH7sZT6P39Z5D999c0QbBmg79EOOpeeGkfcv/2Bgpf3Y7AE/HlzKJxghngMRgmKkxe7Mgm7rm9dCoSd85D8t4FSKycifisRuiicAM5LKMQa5IzhJzdp+C8fgzO5ma4u1p11U0Vygt9foxgMqUbDBMdqf0aZO56iNUnkXx4sYYHJZbPgDWtGrGaZGl9ovjZPJlc2oJLVQR9Rc1V6Rw4LSLJWMpDuh6RHnSMZkSPwoilwWAoKYDAWTpcRkisQWtyGvZt0xBf3oT43EYNUrfqqsLlKdp74Z3ogrtVrMmNx3XACDlP3uPcdJEUxlKOD4PyLEYsDQbD21AJdLkNebQtxGpTYm2mYal1aYt1yTRrnBfuiDVa1GUtgu4sUPTCzzBfJed+j8ORECOWBoOhPAwxyoo06Oj4wDYYEVMKY2YcKmMZTFC6wWAoD9O91Yog1sVls2VLDNniE0YoBzBiaTAYDBVgxNJgMBgqwIilwWAwVIARS4PBYKgAI5YGg8FQAUYsDQaDoQKMWBoMBkMFGLE0GAyGCjBiaTAYDBVgxNJgMBgqwIilwWAwVIARS4PBYKgAI5YGg8FQAUYsDQaDoQKMWBoMBkMFGLE0GAyGCjBiaTAYDBVgxNJgMBgqwIilwWAwVIARS4PBYKgAI5YGg8FQAUYsDQaDoQKMWBoMBkMFGLE0GAyGCjBiaTAYDBVgxNJgMBgqwIilwWAwVIARS4PBYKgAI5YGg8FQAUYsDQaDoQKMWBoMBkMFGLE0GAyGCjBiaTAYDBVgxNJgMBgqwIilwWAwVIARS4PBYKgAI5YGg8FQAUYsDQaDoQKMWBoMBkMFGLE0GAyGCjBiaTAYDBVgxNJgMBgqwIilwWAwVIARS4PBYKgAI5YGg8FQAUYsDQaDoQKMWBoMBkMFGLE0GAyGCjBiaTAYDBVgxNJgMBgqwIilwWAwVIARS4PBYLggwP8PFHRufVraNKgAAAAASUVORK5CYII=;" vertex="1" parent="1">
          <mxGeometry x="379" y="1040" width="101" height="99.47" as="geometry" />
        </mxCell>
        <mxCell id="f1ncYs2R5OoKq9qTf_Yw-37" value="" style="endArrow=classic;html=1;rounded=0;exitX=0.5;exitY=1;exitDx=0;exitDy=0;entryX=1;entryY=0;entryDx=0;entryDy=0;" edge="1" parent="1" source="f1ncYs2R5OoKq9qTf_Yw-17" target="f1ncYs2R5OoKq9qTf_Yw-32">
          <mxGeometry width="50" height="50" relative="1" as="geometry">
            <mxPoint x="280" y="890" as="sourcePoint" />
            <mxPoint x="480" y="1040" as="targetPoint" />
          </mxGeometry>
        </mxCell>
        <mxCell id="f1ncYs2R5OoKq9qTf_Yw-39" value="LogsS3Bucket" style="shape=image;verticalLabelPosition=bottom;labelBackgroundColor=default;verticalAlign=top;aspect=fixed;imageAspect=0;image=https://cdn.worldvectorlogo.com/logos/amazon-s3-simple-storage-service.svg;" vertex="1" parent="1">
          <mxGeometry x="990" y="1039.47" width="100" height="100" as="geometry" />
        </mxCell>
      </root>
    </mxGraphModel>
  </diagram>
</mxfile>
